<mxfile host="Electron" modified="2022-01-25T12:41:57.856Z" agent="5.0 (X11; Linux x86_64) AppleWebKit/537.36 (KHTML, like Gecko) draw.io/16.4.0 Chrome/96.0.4664.110 Electron/16.0.7 Safari/537.36" etag="d78g0F6RmGaDiIgGhg3z" compressed="false" version="16.4.0" type="device">
  <diagram id="2zroeiInaQLpwHe7EyE3" name="第 1 页">
    <mxGraphModel dx="3857" dy="2509" grid="1" gridSize="1" guides="1" tooltips="1" connect="1" arrows="1" fold="1" page="1" pageScale="1" pageWidth="827" pageHeight="1169" math="1" shadow="0">
      <root>
        <mxCell id="0" />
        <mxCell id="1" parent="0" />
        <mxCell id="hhjqESy_3-Br2CAi7Zd4-105" value="&lt;p style=&quot;margin: 0px ; padding: 0px ; color: rgb(51 , 51 , 51) ; font-family: &amp;#34;microsoft yahei&amp;#34; , , &amp;#34;arial&amp;#34; , , sans-serif ; font-size: 16px ; text-align: justify ; background-color: rgb(255 , 255 , 255)&quot;&gt;&lt;br&gt;&lt;/p&gt;" style="text;html=1;align=center;verticalAlign=middle;resizable=0;points=[];autosize=1;strokeColor=none;fillColor=none;fontSize=18;fontFamily=Times New Roman;" parent="1" vertex="1">
          <mxGeometry x="778" y="463" width="11" height="27" as="geometry" />
        </mxCell>
        <mxCell id="y9812lJdi0hRiwMvsD5Z-2" value="&lt;div&gt;&lt;br&gt;&lt;/div&gt;&lt;div&gt;&lt;br&gt;&lt;/div&gt;" style="text;html=1;align=center;verticalAlign=middle;resizable=0;points=[];autosize=1;strokeColor=none;fillColor=none;" parent="1" vertex="1">
          <mxGeometry x="845" y="264" width="11" height="33" as="geometry" />
        </mxCell>
        <mxCell id="VFBNxHkXD9lgY4H8Egre-5" value="" style="group" parent="1" vertex="1" connectable="0">
          <mxGeometry x="53" y="38" width="1115" height="433" as="geometry" />
        </mxCell>
        <mxCell id="VFBNxHkXD9lgY4H8Egre-1" value="&lt;font face=&quot;Times New Roman&quot; style=&quot;font-size: 30px&quot;&gt;&lt;font style=&quot;font-size: 30px&quot;&gt;双目相机&lt;/font&gt;&lt;span&gt;模型&lt;/span&gt;&lt;/font&gt;" style="text;html=1;align=center;verticalAlign=middle;resizable=0;points=[];autosize=1;strokeColor=none;fillColor=none;" parent="VFBNxHkXD9lgY4H8Egre-5" vertex="1">
          <mxGeometry x="-13" y="1" width="191" height="25" as="geometry" />
        </mxCell>
        <mxCell id="VFBNxHkXD9lgY4H8Egre-4" value="" style="group" parent="VFBNxHkXD9lgY4H8Egre-5" vertex="1" connectable="0">
          <mxGeometry y="92" width="1115" height="341" as="geometry" />
        </mxCell>
        <mxCell id="hhjqESy_3-Br2CAi7Zd4-2" value="&lt;font face=&quot;Times New Roman&quot;&gt;X&lt;/font&gt;" style="text;html=1;align=center;verticalAlign=middle;resizable=0;points=[];autosize=1;strokeColor=none;fillColor=none;strokeWidth=7;" parent="VFBNxHkXD9lgY4H8Egre-4" vertex="1">
          <mxGeometry x="490" y="281" width="20" height="20" as="geometry" />
        </mxCell>
        <mxCell id="VFBNxHkXD9lgY4H8Egre-3" value="" style="group" parent="VFBNxHkXD9lgY4H8Egre-4" vertex="1" connectable="0">
          <mxGeometry width="1115" height="341" as="geometry" />
        </mxCell>
        <mxCell id="fMjs41-44k20XxGrdhR1-7" value="&lt;font face=&quot;Times New Roman&quot; style=&quot;font-size: 18px&quot;&gt;image planes&lt;/font&gt;" style="text;html=1;align=center;verticalAlign=middle;resizable=0;points=[];autosize=1;strokeColor=none;fillColor=none;" parent="VFBNxHkXD9lgY4H8Egre-3" vertex="1">
          <mxGeometry y="181" width="110" height="20" as="geometry" />
        </mxCell>
        <mxCell id="VFBNxHkXD9lgY4H8Egre-2" value="" style="group" parent="VFBNxHkXD9lgY4H8Egre-3" vertex="1" connectable="0">
          <mxGeometry x="60" width="1055" height="341" as="geometry" />
        </mxCell>
        <mxCell id="hhjqESy_3-Br2CAi7Zd4-83" value="" style="ellipse;whiteSpace=wrap;html=1;aspect=fixed;" parent="VFBNxHkXD9lgY4H8Egre-2" vertex="1">
          <mxGeometry x="40" y="281" width="20" height="20" as="geometry" />
        </mxCell>
        <mxCell id="hhjqESy_3-Br2CAi7Zd4-28" value="" style="ellipse;whiteSpace=wrap;html=1;aspect=fixed;" parent="VFBNxHkXD9lgY4H8Egre-2" vertex="1">
          <mxGeometry x="310" y="61" width="20" height="20" as="geometry" />
        </mxCell>
        <mxCell id="fMjs41-44k20XxGrdhR1-13" value="" style="ellipse;whiteSpace=wrap;html=1;aspect=fixed;" parent="VFBNxHkXD9lgY4H8Egre-2" vertex="1">
          <mxGeometry x="229" y="281" width="20" height="20" as="geometry" />
        </mxCell>
        <mxCell id="fMjs41-44k20XxGrdhR1-5" value="" style="endArrow=classic;startArrow=none;html=1;edgeStyle=orthogonalEdgeStyle;" parent="VFBNxHkXD9lgY4H8Egre-2" edge="1">
          <mxGeometry width="50" height="50" relative="1" as="geometry">
            <mxPoint x="50" y="341" as="sourcePoint" />
            <mxPoint x="50" y="1" as="targetPoint" />
          </mxGeometry>
        </mxCell>
        <mxCell id="fMjs41-44k20XxGrdhR1-6" value="" style="line;strokeWidth=2;html=1;" parent="VFBNxHkXD9lgY4H8Egre-2" vertex="1">
          <mxGeometry x="50" y="221" width="360" height="10" as="geometry" />
        </mxCell>
        <mxCell id="fMjs41-44k20XxGrdhR1-17" value="&lt;font face=&quot;Times New Roman&quot; style=&quot;font-size: 18px&quot;&gt;P(x,z)&lt;/font&gt;" style="text;html=1;align=center;verticalAlign=middle;resizable=0;points=[];autosize=1;strokeColor=none;fillColor=none;" parent="VFBNxHkXD9lgY4H8Egre-2" vertex="1">
          <mxGeometry x="350" y="31" width="60" height="20" as="geometry" />
        </mxCell>
        <mxCell id="hhjqESy_3-Br2CAi7Zd4-1" value="&lt;font style=&quot;font-size: 18px;&quot;&gt;Z&lt;/font&gt;" style="text;html=1;align=center;verticalAlign=middle;resizable=0;points=[];autosize=1;strokeColor=none;fillColor=none;strokeWidth=7;fontFamily=Times New Roman;fontSize=18;" parent="VFBNxHkXD9lgY4H8Egre-2" vertex="1">
          <mxGeometry x="8" width="30" height="30" as="geometry" />
        </mxCell>
        <mxCell id="fMjs41-44k20XxGrdhR1-12" value="" style="endArrow=none;startArrow=none;html=1;edgeStyle=orthogonalEdgeStyle;" parent="VFBNxHkXD9lgY4H8Egre-2" source="hhjqESy_3-Br2CAi7Zd4-83" edge="1">
          <mxGeometry width="50" height="50" relative="1" as="geometry">
            <mxPoint x="100" y="291" as="sourcePoint" />
            <mxPoint y="291" as="targetPoint" />
          </mxGeometry>
        </mxCell>
        <mxCell id="fMjs41-44k20XxGrdhR1-14" value="" style="endArrow=none;startArrow=classic;html=1;edgeStyle=orthogonalEdgeStyle;" parent="VFBNxHkXD9lgY4H8Egre-2" edge="1">
          <mxGeometry width="50" height="50" relative="1" as="geometry">
            <mxPoint x="420" y="291" as="sourcePoint" />
            <mxPoint x="90" y="291" as="targetPoint" />
          </mxGeometry>
        </mxCell>
        <mxCell id="hhjqESy_3-Br2CAi7Zd4-27" value="" style="endArrow=none;startArrow=none;html=1;edgeStyle=orthogonalEdgeStyle;" parent="VFBNxHkXD9lgY4H8Egre-2" source="fMjs41-44k20XxGrdhR1-13" edge="1">
          <mxGeometry width="50" height="50" relative="1" as="geometry">
            <mxPoint x="229" y="291" as="sourcePoint" />
            <mxPoint x="120" y="291" as="targetPoint" />
          </mxGeometry>
        </mxCell>
        <mxCell id="hhjqESy_3-Br2CAi7Zd4-31" style="edgeStyle=none;orthogonalLoop=1;jettySize=auto;html=1;fontFamily=Times New Roman;fontSize=18;endArrow=none;endFill=0;dashed=1;startArrow=none;" parent="VFBNxHkXD9lgY4H8Egre-2" source="hhjqESy_3-Br2CAi7Zd4-69" edge="1">
          <mxGeometry relative="1" as="geometry">
            <mxPoint x="320.1428571428571" y="291" as="targetPoint" />
            <mxPoint x="320" y="41" as="sourcePoint" />
          </mxGeometry>
        </mxCell>
        <mxCell id="hhjqESy_3-Br2CAi7Zd4-33" style="edgeStyle=none;orthogonalLoop=1;jettySize=auto;html=1;exitX=1;exitY=0.5;exitDx=0;exitDy=0;dashed=1;fontFamily=Times New Roman;fontSize=18;endArrow=none;endFill=0;" parent="VFBNxHkXD9lgY4H8Egre-2" source="hhjqESy_3-Br2CAi7Zd4-28" edge="1">
          <mxGeometry relative="1" as="geometry">
            <mxPoint x="50" y="71.28571428571433" as="targetPoint" />
          </mxGeometry>
        </mxCell>
        <mxCell id="hhjqESy_3-Br2CAi7Zd4-34" style="edgeStyle=none;orthogonalLoop=1;jettySize=auto;html=1;fontFamily=Times New Roman;fontSize=18;endArrow=none;endFill=0;" parent="VFBNxHkXD9lgY4H8Egre-2" edge="1">
          <mxGeometry relative="1" as="geometry">
            <mxPoint x="240" y="291" as="targetPoint" />
            <mxPoint x="320" y="71" as="sourcePoint" />
          </mxGeometry>
        </mxCell>
        <mxCell id="hhjqESy_3-Br2CAi7Zd4-35" value="C&lt;sub&gt;1&lt;/sub&gt;" style="text;html=1;align=center;verticalAlign=middle;resizable=0;points=[];autosize=1;strokeColor=none;fillColor=none;fontSize=18;fontFamily=Times New Roman;" parent="VFBNxHkXD9lgY4H8Egre-2" vertex="1">
          <mxGeometry x="48" y="298" width="40" height="30" as="geometry" />
        </mxCell>
        <mxCell id="hhjqESy_3-Br2CAi7Zd4-36" value="C&lt;span style=&quot;font-size: 15px&quot;&gt;2&lt;/span&gt;" style="text;html=1;align=center;verticalAlign=middle;resizable=0;points=[];autosize=1;strokeColor=none;fillColor=none;fontSize=18;fontFamily=Times New Roman;" parent="VFBNxHkXD9lgY4H8Egre-2" vertex="1">
          <mxGeometry x="229" y="306" width="40" height="30" as="geometry" />
        </mxCell>
        <mxCell id="hhjqESy_3-Br2CAi7Zd4-38" style="edgeStyle=none;orthogonalLoop=1;jettySize=auto;html=1;fontFamily=Times New Roman;fontSize=18;endArrow=none;endFill=0;dashed=1;" parent="VFBNxHkXD9lgY4H8Egre-2" edge="1">
          <mxGeometry relative="1" as="geometry">
            <mxPoint x="239" y="71" as="targetPoint" />
            <mxPoint x="239" y="291" as="sourcePoint" />
          </mxGeometry>
        </mxCell>
        <mxCell id="hhjqESy_3-Br2CAi7Zd4-44" value="O" style="text;html=1;align=center;verticalAlign=middle;resizable=0;points=[];autosize=1;strokeColor=none;fillColor=none;fontSize=18;fontFamily=Times New Roman;" parent="VFBNxHkXD9lgY4H8Egre-2" vertex="1">
          <mxGeometry x="15" y="287" width="30" height="30" as="geometry" />
        </mxCell>
        <mxCell id="hhjqESy_3-Br2CAi7Zd4-45" value="O&#39;" style="text;html=1;align=center;verticalAlign=middle;resizable=0;points=[];autosize=1;strokeColor=none;fillColor=none;fontSize=18;fontFamily=Times New Roman;" parent="VFBNxHkXD9lgY4H8Egre-2" vertex="1">
          <mxGeometry x="15" y="216" width="30" height="30" as="geometry" />
        </mxCell>
        <mxCell id="hhjqESy_3-Br2CAi7Zd4-46" value="" style="shape=crossbar;whiteSpace=wrap;html=1;fontFamily=Times New Roman;fontSize=18;strokeWidth=1;" parent="VFBNxHkXD9lgY4H8Egre-2" vertex="1">
          <mxGeometry x="50" y="291" width="189" height="20" as="geometry" />
        </mxCell>
        <mxCell id="hhjqESy_3-Br2CAi7Zd4-49" value="b" style="text;html=1;align=center;verticalAlign=middle;resizable=0;points=[];autosize=1;strokeColor=none;fillColor=none;fontSize=18;fontFamily=Times New Roman;" parent="VFBNxHkXD9lgY4H8Egre-2" vertex="1">
          <mxGeometry x="122" y="308" width="20" height="30" as="geometry" />
        </mxCell>
        <mxCell id="hhjqESy_3-Br2CAi7Zd4-54" style="edgeStyle=none;orthogonalLoop=1;jettySize=auto;html=1;exitX=1;exitY=1;exitDx=0;exitDy=0;exitPerimeter=0;dashed=1;fontFamily=Times New Roman;fontSize=18;endArrow=none;endFill=0;" parent="VFBNxHkXD9lgY4H8Egre-2" source="hhjqESy_3-Br2CAi7Zd4-50" target="fMjs41-44k20XxGrdhR1-6" edge="1">
          <mxGeometry relative="1" as="geometry" />
        </mxCell>
        <mxCell id="hhjqESy_3-Br2CAi7Zd4-56" style="edgeStyle=none;rounded=0;orthogonalLoop=1;jettySize=auto;html=1;dashed=1;fontFamily=Times New Roman;fontSize=18;endArrow=none;endFill=0;entryX=1;entryY=0.5;entryDx=0;entryDy=0;entryPerimeter=0;" parent="VFBNxHkXD9lgY4H8Egre-2" source="hhjqESy_3-Br2CAi7Zd4-50" target="hhjqESy_3-Br2CAi7Zd4-50" edge="1">
          <mxGeometry relative="1" as="geometry">
            <mxPoint x="180" y="211" as="targetPoint" />
          </mxGeometry>
        </mxCell>
        <mxCell id="hhjqESy_3-Br2CAi7Zd4-50" value="" style="shape=crossbar;whiteSpace=wrap;html=1;fontFamily=Times New Roman;fontSize=18;strokeWidth=1;" parent="VFBNxHkXD9lgY4H8Egre-2" vertex="1">
          <mxGeometry x="50" y="206" width="79" height="20" as="geometry" />
        </mxCell>
        <mxCell id="hhjqESy_3-Br2CAi7Zd4-55" style="edgeStyle=none;orthogonalLoop=1;jettySize=auto;html=1;entryX=1.003;entryY=0.597;entryDx=0;entryDy=0;entryPerimeter=0;dashed=1;fontFamily=Times New Roman;fontSize=18;endArrow=none;endFill=0;" parent="VFBNxHkXD9lgY4H8Egre-2" source="hhjqESy_3-Br2CAi7Zd4-50" target="hhjqESy_3-Br2CAi7Zd4-50" edge="1">
          <mxGeometry relative="1" as="geometry" />
        </mxCell>
        <mxCell id="hhjqESy_3-Br2CAi7Zd4-57" value="xl" style="text;html=1;align=center;verticalAlign=middle;resizable=0;points=[];autosize=1;strokeColor=none;fillColor=none;fontSize=18;fontFamily=Times New Roman;" parent="VFBNxHkXD9lgY4H8Egre-2" vertex="1">
          <mxGeometry x="81" y="191" width="25" height="27" as="geometry" />
        </mxCell>
        <mxCell id="hhjqESy_3-Br2CAi7Zd4-58" value="" style="shape=crossbar;whiteSpace=wrap;html=1;rounded=1;fontFamily=Times New Roman;fontSize=18;strokeWidth=1;" parent="VFBNxHkXD9lgY4H8Egre-2" vertex="1">
          <mxGeometry x="239" y="205" width="25" height="20" as="geometry" />
        </mxCell>
        <mxCell id="hhjqESy_3-Br2CAi7Zd4-59" value="xr" style="text;html=1;align=center;verticalAlign=middle;resizable=0;points=[];autosize=1;strokeColor=none;fillColor=none;fontSize=18;fontFamily=Times New Roman;" parent="VFBNxHkXD9lgY4H8Egre-2" vertex="1">
          <mxGeometry x="237" y="185" width="26" height="27" as="geometry" />
        </mxCell>
        <mxCell id="hhjqESy_3-Br2CAi7Zd4-63" value="" style="shape=waypoint;sketch=0;fillStyle=solid;size=6;pointerEvents=1;points=[];fillColor=none;resizable=0;rotatable=0;perimeter=centerPerimeter;snapToPoint=1;fontFamily=Times New Roman;fontSize=18;strokeWidth=1;" parent="VFBNxHkXD9lgY4H8Egre-2" vertex="1">
          <mxGeometry x="245" y="206" width="40" height="40" as="geometry" />
        </mxCell>
        <mxCell id="hhjqESy_3-Br2CAi7Zd4-64" value="" style="shape=waypoint;sketch=0;fillStyle=solid;size=6;pointerEvents=1;points=[];fillColor=none;resizable=0;rotatable=0;perimeter=centerPerimeter;snapToPoint=1;fontFamily=Times New Roman;fontSize=18;strokeWidth=1;" parent="VFBNxHkXD9lgY4H8Egre-2" vertex="1">
          <mxGeometry x="219" y="50" width="40" height="40" as="geometry" />
        </mxCell>
        <mxCell id="hhjqESy_3-Br2CAi7Zd4-65" value="" style="shape=waypoint;sketch=0;fillStyle=solid;size=6;pointerEvents=1;points=[];fillColor=none;resizable=0;rotatable=0;perimeter=centerPerimeter;snapToPoint=1;fontFamily=Times New Roman;fontSize=18;strokeWidth=1;" parent="VFBNxHkXD9lgY4H8Egre-2" vertex="1">
          <mxGeometry x="219" y="116" width="40" height="40" as="geometry" />
        </mxCell>
        <mxCell id="hhjqESy_3-Br2CAi7Zd4-69" value="" style="shape=waypoint;sketch=0;fillStyle=solid;size=6;pointerEvents=1;points=[];fillColor=none;resizable=0;rotatable=0;perimeter=centerPerimeter;snapToPoint=1;fontFamily=Times New Roman;fontSize=18;strokeWidth=1;" parent="VFBNxHkXD9lgY4H8Egre-2" vertex="1">
          <mxGeometry x="300" y="206" width="40" height="40" as="geometry" />
        </mxCell>
        <mxCell id="hhjqESy_3-Br2CAi7Zd4-70" value="" style="edgeStyle=none;orthogonalLoop=1;jettySize=auto;html=1;fontFamily=Times New Roman;fontSize=18;endArrow=none;endFill=0;dashed=1;" parent="VFBNxHkXD9lgY4H8Egre-2" target="hhjqESy_3-Br2CAi7Zd4-69" edge="1">
          <mxGeometry relative="1" as="geometry">
            <mxPoint x="320.1428571428571" y="291" as="targetPoint" />
            <mxPoint x="320" y="41" as="sourcePoint" />
          </mxGeometry>
        </mxCell>
        <mxCell id="hhjqESy_3-Br2CAi7Zd4-71" value="" style="shape=waypoint;sketch=0;fillStyle=solid;size=6;pointerEvents=1;points=[];fillColor=none;resizable=0;rotatable=0;perimeter=centerPerimeter;snapToPoint=1;fontFamily=Times New Roman;fontSize=18;strokeWidth=1;" parent="VFBNxHkXD9lgY4H8Egre-2" vertex="1">
          <mxGeometry x="30" y="51" width="40" height="40" as="geometry" />
        </mxCell>
        <mxCell id="hhjqESy_3-Br2CAi7Zd4-72" value="T" style="text;html=1;align=center;verticalAlign=middle;resizable=0;points=[];autosize=1;strokeColor=none;fillColor=none;fontSize=18;fontFamily=Times New Roman;" parent="VFBNxHkXD9lgY4H8Egre-2" vertex="1">
          <mxGeometry x="56" y="40" width="22" height="27" as="geometry" />
        </mxCell>
        <mxCell id="hhjqESy_3-Br2CAi7Zd4-73" value="E" style="text;html=1;align=center;verticalAlign=middle;resizable=0;points=[];autosize=1;strokeColor=none;fillColor=none;fontSize=18;fontFamily=Times New Roman;" parent="VFBNxHkXD9lgY4H8Egre-2" vertex="1">
          <mxGeometry x="218" y="41" width="22" height="27" as="geometry" />
        </mxCell>
        <mxCell id="hhjqESy_3-Br2CAi7Zd4-74" value="D&lt;sub&gt;1&lt;/sub&gt;" style="text;html=1;align=center;verticalAlign=middle;resizable=0;points=[];autosize=1;strokeColor=none;fillColor=none;fontSize=18;fontFamily=Times New Roman;" parent="VFBNxHkXD9lgY4H8Egre-2" vertex="1">
          <mxGeometry x="126" y="221" width="32" height="33" as="geometry" />
        </mxCell>
        <mxCell id="hhjqESy_3-Br2CAi7Zd4-76" value="D&lt;span style=&quot;font-size: 15px&quot;&gt;2&lt;/span&gt;" style="text;html=1;align=center;verticalAlign=middle;resizable=0;points=[];autosize=1;strokeColor=none;fillColor=none;fontSize=18;fontFamily=Times New Roman;" parent="VFBNxHkXD9lgY4H8Egre-2" vertex="1">
          <mxGeometry x="261" y="226" width="32" height="28" as="geometry" />
        </mxCell>
        <mxCell id="hhjqESy_3-Br2CAi7Zd4-77" value="Y" style="text;html=1;align=center;verticalAlign=middle;resizable=0;points=[];autosize=1;strokeColor=none;fillColor=none;fontSize=18;fontFamily=Times New Roman;" parent="VFBNxHkXD9lgY4H8Egre-2" vertex="1">
          <mxGeometry x="325" y="227" width="24" height="27" as="geometry" />
        </mxCell>
        <mxCell id="hhjqESy_3-Br2CAi7Zd4-84" value="" style="endArrow=none;startArrow=none;html=1;edgeStyle=orthogonalEdgeStyle;" parent="VFBNxHkXD9lgY4H8Egre-2" edge="1">
          <mxGeometry width="50" height="50" relative="1" as="geometry">
            <mxPoint x="100" y="291" as="sourcePoint" />
            <mxPoint x="35" y="291" as="targetPoint" />
          </mxGeometry>
        </mxCell>
        <mxCell id="hhjqESy_3-Br2CAi7Zd4-86" style="edgeStyle=none;rounded=0;orthogonalLoop=1;jettySize=auto;html=1;fontFamily=Times New Roman;fontSize=18;endArrow=none;endFill=0;startArrow=none;" parent="VFBNxHkXD9lgY4H8Egre-2" source="hhjqESy_3-Br2CAi7Zd4-62" edge="1">
          <mxGeometry relative="1" as="geometry">
            <mxPoint x="320" y="71" as="targetPoint" />
            <mxPoint x="49" y="291" as="sourcePoint" />
          </mxGeometry>
        </mxCell>
        <mxCell id="hhjqESy_3-Br2CAi7Zd4-62" value="" style="shape=waypoint;sketch=0;fillStyle=solid;size=6;pointerEvents=1;points=[];fillColor=none;resizable=0;rotatable=0;perimeter=centerPerimeter;snapToPoint=1;fontFamily=Times New Roman;fontSize=18;strokeWidth=1;" parent="VFBNxHkXD9lgY4H8Egre-2" vertex="1">
          <mxGeometry x="109" y="206" width="40" height="40" as="geometry" />
        </mxCell>
        <mxCell id="hhjqESy_3-Br2CAi7Zd4-87" value="" style="edgeStyle=none;rounded=0;orthogonalLoop=1;jettySize=auto;html=1;fontFamily=Times New Roman;fontSize=18;endArrow=none;endFill=0;" parent="VFBNxHkXD9lgY4H8Egre-2" target="hhjqESy_3-Br2CAi7Zd4-62" edge="1">
          <mxGeometry relative="1" as="geometry">
            <mxPoint x="320" y="71" as="targetPoint" />
            <mxPoint x="49" y="291" as="sourcePoint" />
          </mxGeometry>
        </mxCell>
        <mxCell id="hhjqESy_3-Br2CAi7Zd4-96" value="G" style="text;html=1;align=center;verticalAlign=middle;resizable=0;points=[];autosize=1;strokeColor=none;fillColor=none;fontSize=18;fontFamily=Times New Roman;" parent="VFBNxHkXD9lgY4H8Egre-2" vertex="1">
          <mxGeometry x="212" y="227" width="24" height="27" as="geometry" />
        </mxCell>
        <mxCell id="hhjqESy_3-Br2CAi7Zd4-95" value="$$\triangle C_2EP \backsim \triangle C_2GD_2 \Rightarrow \frac{x-b}{xr} = \frac{z}{OO&#39;(f)}$$" style="text;html=1;align=center;verticalAlign=middle;resizable=0;points=[];autosize=1;strokeColor=none;fillColor=none;fontSize=18;fontFamily=Times New Roman;" parent="1" vertex="1">
          <mxGeometry x="197" y="515" width="719" height="27" as="geometry" />
        </mxCell>
        <mxCell id="hhjqESy_3-Br2CAi7Zd4-89" value="$$\triangle TOP \backsim \triangle OO&#39;D_1 \Rightarrow \frac{x}{xl} = \frac{z}{OO&#39;(f)}$$" style="text;html=1;align=center;verticalAlign=middle;resizable=0;points=[];autosize=1;strokeColor=none;fillColor=none;fontSize=18;fontFamily=Times New Roman;" parent="1" vertex="1">
          <mxGeometry x="211" y="478" width="671" height="27" as="geometry" />
        </mxCell>
        <mxCell id="y9812lJdi0hRiwMvsD5Z-6" value="" style="group" parent="1" vertex="1" connectable="0">
          <mxGeometry x="313" y="561" width="272" height="120" as="geometry" />
        </mxCell>
        <mxCell id="hhjqESy_3-Br2CAi7Zd4-97" value="$$\Rightarrow $$" style="text;html=1;align=center;verticalAlign=middle;resizable=0;points=[];autosize=1;strokeColor=none;fillColor=none;fontSize=18;fontFamily=Times New Roman;" parent="y9812lJdi0hRiwMvsD5Z-6" vertex="1">
          <mxGeometry y="42" width="139" height="27" as="geometry" />
        </mxCell>
        <mxCell id="y9812lJdi0hRiwMvsD5Z-5" value="" style="group" parent="y9812lJdi0hRiwMvsD5Z-6" vertex="1" connectable="0">
          <mxGeometry x="79" width="193" height="120" as="geometry" />
        </mxCell>
        <mxCell id="hhjqESy_3-Br2CAi7Zd4-107" value="" style="shape=curlyBracket;whiteSpace=wrap;html=1;rounded=1;fontFamily=Times New Roman;fontSize=18;strokeWidth=1;" parent="y9812lJdi0hRiwMvsD5Z-5" vertex="1">
          <mxGeometry x="19" width="20" height="120" as="geometry" />
        </mxCell>
        <mxCell id="hhjqESy_3-Br2CAi7Zd4-109" value="$$xl = \frac{x}{z}f$$" style="text;html=1;align=center;verticalAlign=middle;resizable=0;points=[];autosize=1;strokeColor=none;fillColor=none;fontSize=18;fontFamily=Times New Roman;" parent="y9812lJdi0hRiwMvsD5Z-5" vertex="1">
          <mxGeometry y="13" width="171" height="27" as="geometry" />
        </mxCell>
        <mxCell id="hhjqESy_3-Br2CAi7Zd4-110" value="$$xr = \frac{x-b}{z}f$$" style="text;html=1;align=center;verticalAlign=middle;resizable=0;points=[];autosize=1;strokeColor=none;fillColor=none;fontSize=18;fontFamily=Times New Roman;" parent="y9812lJdi0hRiwMvsD5Z-5" vertex="1">
          <mxGeometry x="6" y="68" width="187" height="27" as="geometry" />
        </mxCell>
        <mxCell id="hhjqESy_3-Br2CAi7Zd4-112" value="$$\Rightarrow z = \frac{b}{xl-xr}f$$" style="text;html=1;align=center;verticalAlign=middle;resizable=0;points=[];autosize=1;strokeColor=none;fillColor=none;fontSize=18;fontFamily=Times New Roman;" parent="1" vertex="1">
          <mxGeometry x="493" y="604" width="283" height="27" as="geometry" />
        </mxCell>
        <mxCell id="VFBNxHkXD9lgY4H8Egre-50" value="&lt;font face=&quot;Times New Roman&quot; style=&quot;font-size: 30px&quot;&gt;相机坐标系&lt;/font&gt;" style="text;html=1;align=center;verticalAlign=middle;resizable=0;points=[];autosize=1;strokeColor=none;fillColor=none;" parent="1" vertex="1">
          <mxGeometry x="868" y="21" width="161" height="25" as="geometry" />
        </mxCell>
        <mxCell id="VFBNxHkXD9lgY4H8Egre-51" value="&lt;font face=&quot;Times New Roman&quot; style=&quot;font-size: 30px&quot;&gt;象面坐标&lt;/font&gt;" style="text;html=1;align=center;verticalAlign=middle;resizable=0;points=[];autosize=1;strokeColor=none;fillColor=none;" parent="1" vertex="1">
          <mxGeometry x="1126" y="21" width="131" height="25" as="geometry" />
        </mxCell>
        <mxCell id="VFBNxHkXD9lgY4H8Egre-52" style="edgeStyle=orthogonalEdgeStyle;rounded=0;orthogonalLoop=1;jettySize=auto;html=1;" parent="1" source="VFBNxHkXD9lgY4H8Egre-50" target="VFBNxHkXD9lgY4H8Egre-51" edge="1">
          <mxGeometry x="883" y="22" as="geometry" />
        </mxCell>
        <mxCell id="VFBNxHkXD9lgY4H8Egre-162" value="" style="group" parent="1" vertex="1" connectable="0">
          <mxGeometry x="977" y="68" width="510" height="357" as="geometry" />
        </mxCell>
        <mxCell id="VFBNxHkXD9lgY4H8Egre-66" value="" style="group" parent="VFBNxHkXD9lgY4H8Egre-162" vertex="1" connectable="0">
          <mxGeometry x="105.9375" y="16.866141732283463" width="260.625" height="332.6377952755906" as="geometry" />
        </mxCell>
        <mxCell id="VFBNxHkXD9lgY4H8Egre-61" style="edgeStyle=none;rounded=0;orthogonalLoop=1;jettySize=auto;html=1;exitX=0.997;exitY=0.546;exitDx=0;exitDy=0;exitPerimeter=0;" parent="VFBNxHkXD9lgY4H8Egre-66" edge="1">
          <mxGeometry relative="1" as="geometry">
            <mxPoint x="0.5062499999997527" y="239.8946299212596" as="sourcePoint" />
            <mxPoint x="353.4375" y="67.46456692913387" as="targetPoint" />
          </mxGeometry>
        </mxCell>
        <mxCell id="VFBNxHkXD9lgY4H8Egre-62" style="edgeStyle=none;rounded=0;orthogonalLoop=1;jettySize=auto;html=1;entryX=0.502;entryY=0.424;entryDx=0;entryDy=0;entryPerimeter=0;startArrow=none;" parent="VFBNxHkXD9lgY4H8Egre-66" source="VFBNxHkXD9lgY4H8Egre-110" edge="1">
          <mxGeometry relative="1" as="geometry">
            <mxPoint x="-0.9375" y="330.7637795275591" as="sourcePoint" />
            <mxPoint as="targetPoint" />
          </mxGeometry>
        </mxCell>
        <mxCell id="VFBNxHkXD9lgY4H8Egre-63" style="edgeStyle=none;rounded=0;orthogonalLoop=1;jettySize=auto;html=1;exitX=0;exitY=0;exitDx=0;exitDy=78.39291168278956;exitPerimeter=0;" parent="VFBNxHkXD9lgY4H8Egre-66" edge="1">
          <mxGeometry relative="1" as="geometry">
            <mxPoint y="239.87674401773197" as="sourcePoint" />
            <mxPoint x="265.3125" y="363.5590551181103" as="targetPoint" />
          </mxGeometry>
        </mxCell>
        <mxCell id="VFBNxHkXD9lgY4H8Egre-70" value="&lt;font style=&quot;font-size: 18px&quot;&gt;$$Z_c$$&lt;/font&gt;" style="text;html=1;align=center;verticalAlign=middle;resizable=0;points=[];autosize=1;strokeColor=none;fillColor=none;" parent="VFBNxHkXD9lgY4H8Egre-66" vertex="1">
          <mxGeometry x="173.4375" y="99.3228346456693" width="81" height="21" as="geometry" />
        </mxCell>
        <mxCell id="VFBNxHkXD9lgY4H8Egre-84" value="" style="group" parent="VFBNxHkXD9lgY4H8Egre-66" vertex="1" connectable="0">
          <mxGeometry x="35.625" y="151.7952755905512" width="66.5625" height="95.57480314960631" as="geometry" />
        </mxCell>
        <mxCell id="VFBNxHkXD9lgY4H8Egre-77" style="edgeStyle=none;rounded=0;orthogonalLoop=1;jettySize=auto;html=1;exitX=0;exitY=0;exitDx=0;exitDy=78.39291168278956;exitPerimeter=0;entryX=0;entryY=0;entryDx=0;entryDy=21.60708831721044;entryPerimeter=0;endArrow=none;endFill=0;strokeColor=#6A45FF;" parent="VFBNxHkXD9lgY4H8Egre-84" edge="1">
          <mxGeometry relative="1" as="geometry">
            <mxPoint y="69.23194678384482" as="sourcePoint" />
            <mxPoint as="targetPoint" />
          </mxGeometry>
        </mxCell>
        <mxCell id="VFBNxHkXD9lgY4H8Egre-78" style="edgeStyle=none;rounded=0;orthogonalLoop=1;jettySize=auto;html=1;exitX=0;exitY=0;exitDx=0;exitDy=78.39291168278956;exitPerimeter=0;entryX=0.5;entryY=1;entryDx=0;entryDy=0;entryPerimeter=0;endArrow=none;endFill=0;strokeColor=#3E29FF;" parent="VFBNxHkXD9lgY4H8Egre-84" edge="1">
          <mxGeometry relative="1" as="geometry">
            <mxPoint y="69.23194678384482" as="sourcePoint" />
            <mxPoint x="66.5625" y="95.57480314960628" as="targetPoint" />
          </mxGeometry>
        </mxCell>
        <mxCell id="VFBNxHkXD9lgY4H8Egre-79" style="edgeStyle=none;rounded=0;orthogonalLoop=1;jettySize=auto;html=1;exitX=0;exitY=0;exitDx=0;exitDy=21.60708831721044;exitPerimeter=0;entryX=0.498;entryY=0.43;entryDx=0;entryDy=0;entryPerimeter=0;endArrow=none;endFill=0;strokeColor=#2643FF;" parent="VFBNxHkXD9lgY4H8Egre-84" edge="1">
          <mxGeometry relative="1" as="geometry">
            <mxPoint as="sourcePoint" />
            <mxPoint x="66.29625000000023" y="26.08173722584667" as="targetPoint" />
          </mxGeometry>
        </mxCell>
        <mxCell id="VFBNxHkXD9lgY4H8Egre-80" style="edgeStyle=none;rounded=0;orthogonalLoop=1;jettySize=auto;html=1;exitX=0.5;exitY=1;exitDx=0;exitDy=0;exitPerimeter=0;endArrow=none;endFill=0;strokeColor=#351FFF;" parent="VFBNxHkXD9lgY4H8Egre-84" edge="1">
          <mxGeometry relative="1" as="geometry">
            <mxPoint x="66.5625" y="95.57480314960628" as="sourcePoint" />
            <mxPoint x="66.5625" y="26.08173722584667" as="targetPoint" />
          </mxGeometry>
        </mxCell>
        <mxCell id="VFBNxHkXD9lgY4H8Egre-87" value="" style="shape=waypoint;sketch=0;fillStyle=solid;size=6;pointerEvents=1;points=[];fillColor=none;resizable=0;rotatable=0;perimeter=centerPerimeter;snapToPoint=1;strokeColor=#14FF2C;strokeWidth=1;" parent="VFBNxHkXD9lgY4H8Egre-66" vertex="1">
          <mxGeometry x="152.8125" y="10.30708661417323" width="40" height="40" as="geometry" />
        </mxCell>
        <mxCell id="VFBNxHkXD9lgY4H8Egre-92" style="edgeStyle=none;rounded=0;orthogonalLoop=1;jettySize=auto;html=1;exitX=0.5;exitY=0;exitDx=0;exitDy=0;exitPerimeter=0;endArrow=none;endFill=0;strokeColor=#6A45FF;" parent="VFBNxHkXD9lgY4H8Egre-66" edge="1">
          <mxGeometry relative="1" as="geometry">
            <mxPoint x="172.03125" y="29.98425196850394" as="sourcePoint" />
            <mxPoint x="172.03125" y="29.98425196850394" as="targetPoint" />
          </mxGeometry>
        </mxCell>
        <mxCell id="VFBNxHkXD9lgY4H8Egre-104" value="" style="group" parent="VFBNxHkXD9lgY4H8Egre-66" vertex="1" connectable="0">
          <mxGeometry x="-55.3125" y="29.983663837271873" width="283.12499999999955" height="185.5281471863502" as="geometry" />
        </mxCell>
        <mxCell id="VFBNxHkXD9lgY4H8Egre-89" style="edgeStyle=none;rounded=0;orthogonalLoop=1;jettySize=auto;html=1;exitX=0.5;exitY=0;exitDx=0;exitDy=0;exitPerimeter=0;endArrow=none;endFill=0;strokeColor=#000000;dashed=1;" parent="VFBNxHkXD9lgY4H8Egre-104" edge="1">
          <mxGeometry relative="1" as="geometry">
            <mxPoint x="227.34374999999997" y="0.0005881312320666009" as="sourcePoint" />
            <mxPoint y="107.7564936430431" as="targetPoint" />
          </mxGeometry>
        </mxCell>
        <mxCell id="VFBNxHkXD9lgY4H8Egre-91" style="edgeStyle=none;rounded=0;orthogonalLoop=1;jettySize=auto;html=1;exitX=0;exitY=0;exitDx=118.99999999999999;exitDy=28.5693723305338;exitPerimeter=0;entryX=0;entryY=0;entryDx=118.99999999999999;entryDy=106.4306276694662;entryPerimeter=0;endArrow=none;endFill=0;strokeColor=#000000;dashed=1;" parent="VFBNxHkXD9lgY4H8Egre-104" edge="1">
          <mxGeometry relative="1" as="geometry">
            <mxPoint x="283.12499999999955" y="26.770314960629918" as="sourcePoint" />
            <mxPoint x="283.12499999999955" y="99.72692429396032" as="targetPoint" />
          </mxGeometry>
        </mxCell>
        <mxCell id="VFBNxHkXD9lgY4H8Egre-93" style="edgeStyle=none;rounded=0;orthogonalLoop=1;jettySize=auto;html=1;exitX=0;exitY=0;exitDx=118.99999999999999;exitDy=28.5693723305338;exitPerimeter=0;entryX=0.5;entryY=0;entryDx=0;entryDy=0;entryPerimeter=0;endArrow=none;endFill=0;strokeColor=#000000;dashed=1;" parent="VFBNxHkXD9lgY4H8Egre-104" edge="1">
          <mxGeometry relative="1" as="geometry">
            <mxPoint x="283.12499999999955" y="26.770314960629918" as="sourcePoint" />
            <mxPoint x="227.34374999999997" y="0.0005881312320666009" as="targetPoint" />
          </mxGeometry>
        </mxCell>
        <mxCell id="VFBNxHkXD9lgY4H8Egre-96" style="edgeStyle=none;rounded=0;orthogonalLoop=1;jettySize=auto;html=1;exitX=0.5;exitY=1;exitDx=0;exitDy=0;exitPerimeter=0;endArrow=none;endFill=0;strokeColor=#000000;dashed=1;" parent="VFBNxHkXD9lgY4H8Egre-104" edge="1">
          <mxGeometry relative="1" as="geometry">
            <mxPoint x="281.71874999999994" y="98.92050939107453" as="sourcePoint" />
            <mxPoint x="227.81249999999997" y="73.08720230446042" as="targetPoint" />
          </mxGeometry>
        </mxCell>
        <mxCell id="VFBNxHkXD9lgY4H8Egre-98" style="edgeStyle=none;rounded=0;orthogonalLoop=1;jettySize=auto;html=1;exitX=0;exitY=0;exitDx=118.99999999999999;exitDy=28.5693723305338;exitPerimeter=0;entryX=0;entryY=0;entryDx=118.99999999999999;entryDy=106.4306276694662;entryPerimeter=0;endArrow=none;endFill=0;strokeColor=#000000;dashed=1;" parent="VFBNxHkXD9lgY4H8Egre-104" edge="1">
          <mxGeometry relative="1" as="geometry">
            <mxPoint x="227.81249999999955" as="sourcePoint" />
            <mxPoint x="227.81249999999955" y="72.9566093333304" as="targetPoint" />
          </mxGeometry>
        </mxCell>
        <mxCell id="VFBNxHkXD9lgY4H8Egre-99" style="edgeStyle=none;rounded=0;orthogonalLoop=1;jettySize=auto;html=1;exitX=0.5;exitY=0;exitDx=0;exitDy=0;exitPerimeter=0;endArrow=none;endFill=0;strokeColor=#000000;dashed=1;" parent="VFBNxHkXD9lgY4H8Egre-104" edge="1">
          <mxGeometry relative="1" as="geometry">
            <mxPoint x="228.74999999999997" y="73.08720230446042" as="sourcePoint" />
            <mxPoint y="180.84310781627147" as="targetPoint" />
          </mxGeometry>
        </mxCell>
        <mxCell id="VFBNxHkXD9lgY4H8Egre-148" value="&lt;span style=&quot;font-size: 13px&quot;&gt;$$O_2$$&lt;/span&gt;" style="text;html=1;align=center;verticalAlign=middle;resizable=0;points=[];autosize=1;strokeColor=none;fillColor=none;" parent="VFBNxHkXD9lgY4H8Egre-104" vertex="1">
          <mxGeometry x="116.24999999999999" y="166.78798970603523" width="65" height="19" as="geometry" />
        </mxCell>
        <mxCell id="VFBNxHkXD9lgY4H8Egre-149" value="&lt;span style=&quot;font-size: 13px&quot;&gt;$$P&#39;(x,y)$$&lt;/span&gt;" style="text;html=1;align=center;verticalAlign=middle;resizable=0;points=[];autosize=1;strokeColor=none;fillColor=none;" parent="VFBNxHkXD9lgY4H8Egre-104" vertex="1">
          <mxGeometry x="65.62499999999999" y="131.1816904934368" width="76" height="19" as="geometry" />
        </mxCell>
        <mxCell id="VFBNxHkXD9lgY4H8Egre-150" value="&lt;span style=&quot;font-size: 13px&quot;&gt;$$E$$&lt;/span&gt;" style="text;html=1;align=center;verticalAlign=middle;resizable=0;points=[];autosize=1;strokeColor=none;fillColor=none;" parent="VFBNxHkXD9lgY4H8Egre-104" vertex="1">
          <mxGeometry x="110.62499999999999" y="148.98484009973603" width="49" height="19" as="geometry" />
        </mxCell>
        <mxCell id="VFBNxHkXD9lgY4H8Egre-152" value="&lt;span style=&quot;font-size: 13px&quot;&gt;$$B$$&lt;/span&gt;" style="text;html=1;align=center;verticalAlign=middle;resizable=0;points=[];autosize=1;strokeColor=none;fillColor=none;" parent="VFBNxHkXD9lgY4H8Egre-104" vertex="1">
          <mxGeometry x="74.99999999999999" y="152.73287159579903" width="49" height="19" as="geometry" />
        </mxCell>
        <mxCell id="VFBNxHkXD9lgY4H8Egre-105" style="edgeStyle=none;rounded=0;orthogonalLoop=1;jettySize=auto;html=1;exitX=0;exitY=0;exitDx=0;exitDy=78.39291168278956;exitPerimeter=0;" parent="VFBNxHkXD9lgY4H8Egre-66" edge="1">
          <mxGeometry relative="1" as="geometry">
            <mxPoint x="71.25" y="206.14446055316503" as="sourcePoint" />
            <mxPoint x="336.56249999999955" y="329.82677165354335" as="targetPoint" />
          </mxGeometry>
        </mxCell>
        <mxCell id="VFBNxHkXD9lgY4H8Egre-106" style="edgeStyle=none;rounded=0;orthogonalLoop=1;jettySize=auto;html=1;startArrow=none;" parent="VFBNxHkXD9lgY4H8Egre-66" edge="1">
          <mxGeometry relative="1" as="geometry">
            <mxPoint x="70.31249999999979" y="205.20472440944883" as="sourcePoint" />
            <mxPoint x="71.25" y="411.3464566929134" as="targetPoint" />
          </mxGeometry>
        </mxCell>
        <mxCell id="VFBNxHkXD9lgY4H8Egre-109" style="edgeStyle=none;rounded=0;orthogonalLoop=1;jettySize=auto;html=1;endArrow=none;endFill=0;strokeColor=#000000;startArrow=none;" parent="VFBNxHkXD9lgY4H8Egre-66" edge="1">
          <mxGeometry relative="1" as="geometry">
            <mxPoint x="0.9375" y="238.93700787401576" as="targetPoint" />
            <mxPoint x="48.75" y="178.96850393700788" as="sourcePoint" />
          </mxGeometry>
        </mxCell>
        <mxCell id="VFBNxHkXD9lgY4H8Egre-110" value="" style="shape=waypoint;sketch=0;fillStyle=solid;size=6;pointerEvents=1;points=[];fillColor=none;resizable=0;rotatable=0;perimeter=centerPerimeter;snapToPoint=1;strokeColor=#000000;strokeWidth=1;" parent="VFBNxHkXD9lgY4H8Egre-66" vertex="1">
          <mxGeometry x="-18.75" y="220.1968503937008" width="40" height="40" as="geometry" />
        </mxCell>
        <mxCell id="VFBNxHkXD9lgY4H8Egre-116" value="" style="edgeStyle=none;rounded=0;orthogonalLoop=1;jettySize=auto;html=1;endArrow=none;endFill=0;strokeColor=#000000;" parent="VFBNxHkXD9lgY4H8Egre-66" edge="1">
          <mxGeometry relative="1" as="geometry">
            <mxPoint x="48.75" y="178.96850393700788" as="targetPoint" />
            <mxPoint x="172.5" y="30.92125984251969" as="sourcePoint" />
          </mxGeometry>
        </mxCell>
        <mxCell id="VFBNxHkXD9lgY4H8Egre-119" value="" style="ellipse;whiteSpace=wrap;html=1;aspect=fixed;strokeColor=#000000;strokeWidth=1;fillColor=#000000;" parent="VFBNxHkXD9lgY4H8Egre-66" vertex="1">
          <mxGeometry x="47.34375" y="193.96062992125985" width="2.8110236220472444" height="2.8110236220472444" as="geometry" />
        </mxCell>
        <mxCell id="VFBNxHkXD9lgY4H8Egre-147" value="&lt;font style=&quot;font-size: 18px&quot;&gt;$$O_c$$&lt;/font&gt;" style="text;html=1;align=center;verticalAlign=middle;resizable=0;points=[];autosize=1;strokeColor=none;fillColor=none;" parent="VFBNxHkXD9lgY4H8Egre-66" vertex="1">
          <mxGeometry x="-52.5" y="241.74803149606302" width="84" height="21" as="geometry" />
        </mxCell>
        <mxCell id="VFBNxHkXD9lgY4H8Egre-153" value="&lt;span style=&quot;font-size: 13px&quot;&gt;$$P(X_c,Y_c,Z_c)$$&lt;/span&gt;" style="text;html=1;align=center;verticalAlign=middle;resizable=0;points=[];autosize=1;strokeColor=none;fillColor=none;" parent="VFBNxHkXD9lgY4H8Egre-66" vertex="1">
          <mxGeometry x="115.3125" y="9.370078740157481" width="131" height="19" as="geometry" />
        </mxCell>
        <mxCell id="VFBNxHkXD9lgY4H8Egre-155" value="&lt;span style=&quot;font-size: 13px&quot;&gt;$$C$$&lt;/span&gt;" style="text;html=1;align=center;verticalAlign=middle;resizable=0;points=[];autosize=1;strokeColor=none;fillColor=none;" parent="VFBNxHkXD9lgY4H8Egre-66" vertex="1">
          <mxGeometry x="214.6875" y="44.97637795275591" width="49" height="19" as="geometry" />
        </mxCell>
        <mxCell id="VFBNxHkXD9lgY4H8Egre-156" value="&lt;span style=&quot;font-size: 13px&quot;&gt;$$D$$&lt;/span&gt;" style="text;html=1;align=center;verticalAlign=middle;resizable=0;points=[];autosize=1;strokeColor=none;fillColor=none;" parent="VFBNxHkXD9lgY4H8Egre-66" vertex="1">
          <mxGeometry x="212.8125" y="128.3700787401575" width="49" height="19" as="geometry" />
        </mxCell>
        <mxCell id="VFBNxHkXD9lgY4H8Egre-157" value="&lt;span style=&quot;font-size: 13px&quot;&gt;$$A$$&lt;/span&gt;" style="text;html=1;align=center;verticalAlign=middle;resizable=0;points=[];autosize=1;strokeColor=none;fillColor=none;" parent="VFBNxHkXD9lgY4H8Egre-66" vertex="1">
          <mxGeometry x="148.59375" y="103.0708661417323" width="49" height="19" as="geometry" />
        </mxCell>
        <mxCell id="VFBNxHkXD9lgY4H8Egre-69" value="&lt;font style=&quot;font-size: 18px&quot;&gt;$$Y_c$$&lt;/font&gt;" style="text;html=1;align=center;verticalAlign=middle;resizable=0;points=[];autosize=1;strokeColor=none;fillColor=none;" parent="VFBNxHkXD9lgY4H8Egre-162" vertex="1">
          <mxGeometry width="82" height="21" as="geometry" />
        </mxCell>
        <mxCell id="VFBNxHkXD9lgY4H8Egre-71" value="&lt;font style=&quot;font-size: 18px&quot;&gt;$$X_c$$&lt;/font&gt;" style="text;html=1;align=center;verticalAlign=middle;resizable=0;points=[];autosize=1;strokeColor=none;fillColor=none;" parent="VFBNxHkXD9lgY4H8Egre-162" vertex="1">
          <mxGeometry x="185.625" y="337.3228346456693" width="82" height="21" as="geometry" />
        </mxCell>
        <mxCell id="VFBNxHkXD9lgY4H8Egre-95" style="edgeStyle=none;rounded=0;orthogonalLoop=1;jettySize=auto;html=1;exitX=0.5;exitY=1;exitDx=0;exitDy=0;exitPerimeter=0;endArrow=none;endFill=0;strokeColor=#000000;dashed=1;" parent="VFBNxHkXD9lgY4H8Egre-162" edge="1">
          <mxGeometry relative="1" as="geometry">
            <mxPoint x="105" y="180.43960629921258" as="sourcePoint" />
            <mxPoint x="50.625" y="154.60629921259843" as="targetPoint" />
          </mxGeometry>
        </mxCell>
        <mxCell id="VFBNxHkXD9lgY4H8Egre-100" style="edgeStyle=none;rounded=0;orthogonalLoop=1;jettySize=auto;html=1;exitX=0;exitY=0;exitDx=118.99999999999999;exitDy=28.5693723305338;exitPerimeter=0;entryX=0;entryY=0;entryDx=118.99999999999999;entryDy=106.4306276694662;entryPerimeter=0;endArrow=none;endFill=0;strokeColor=#000000;dashed=1;" parent="VFBNxHkXD9lgY4H8Egre-162" edge="1">
          <mxGeometry relative="1" as="geometry">
            <mxPoint x="50.624999999999574" y="154.60571108136637" as="sourcePoint" />
            <mxPoint x="50.624999999999574" y="227.5623204146968" as="targetPoint" />
          </mxGeometry>
        </mxCell>
        <mxCell id="VFBNxHkXD9lgY4H8Egre-101" style="edgeStyle=none;rounded=0;orthogonalLoop=1;jettySize=auto;html=1;exitX=0.5;exitY=1;exitDx=0;exitDy=0;exitPerimeter=0;endArrow=none;endFill=0;strokeColor=#000000;dashed=1;" parent="VFBNxHkXD9lgY4H8Egre-162" edge="1">
          <mxGeometry relative="1" as="geometry">
            <mxPoint x="105" y="256.33724409448814" as="sourcePoint" />
            <mxPoint x="50.625" y="227.69291338582678" as="targetPoint" />
          </mxGeometry>
        </mxCell>
        <mxCell id="VFBNxHkXD9lgY4H8Egre-126" style="edgeStyle=none;rounded=0;orthogonalLoop=1;jettySize=auto;html=1;exitX=1;exitY=0;exitDx=0;exitDy=0;dashed=1;endArrow=none;endFill=0;strokeColor=#000000;" parent="VFBNxHkXD9lgY4H8Egre-162" source="VFBNxHkXD9lgY4H8Egre-124" edge="1">
          <mxGeometry relative="1" as="geometry">
            <mxPoint x="106.875" y="180.84251968503938" as="targetPoint" />
          </mxGeometry>
        </mxCell>
        <mxCell id="VFBNxHkXD9lgY4H8Egre-127" style="edgeStyle=none;rounded=0;orthogonalLoop=1;jettySize=auto;html=1;exitX=1;exitY=0;exitDx=0;exitDy=0;endArrow=none;endFill=0;strokeColor=#000000;" parent="VFBNxHkXD9lgY4H8Egre-162" source="VFBNxHkXD9lgY4H8Egre-124" target="VFBNxHkXD9lgY4H8Egre-110" edge="1">
          <mxGeometry relative="1" as="geometry" />
        </mxCell>
        <mxCell id="VFBNxHkXD9lgY4H8Egre-124" value="" style="ellipse;whiteSpace=wrap;html=1;aspect=fixed;strokeColor=#000000;strokeWidth=1;fillColor=#000000;" parent="VFBNxHkXD9lgY4H8Egre-162" vertex="1">
          <mxGeometry x="332.8125" y="73.08661417322834" width="2.811023622047244" height="2.811023622047244" as="geometry" />
        </mxCell>
        <mxCell id="VFBNxHkXD9lgY4H8Egre-125" value="" style="edgeStyle=none;rounded=0;orthogonalLoop=1;jettySize=auto;html=1;exitX=0;exitY=0;exitDx=118.99999999999999;exitDy=28.5693723305338;exitPerimeter=0;endArrow=none;endFill=0;strokeColor=#000000;dashed=1;" parent="VFBNxHkXD9lgY4H8Egre-162" target="VFBNxHkXD9lgY4H8Egre-124" edge="1">
          <mxGeometry relative="1" as="geometry">
            <mxPoint x="105.9375" y="180.84251968503938" as="targetPoint" />
            <mxPoint x="333.74999999999955" y="73.62012053018525" as="sourcePoint" />
          </mxGeometry>
        </mxCell>
        <mxCell id="VFBNxHkXD9lgY4H8Egre-134" style="edgeStyle=none;rounded=0;orthogonalLoop=1;jettySize=auto;html=1;exitX=0;exitY=0.5;exitDx=0;exitDy=0;dashed=1;dashPattern=1 1;endArrow=none;endFill=0;strokeColor=#FF0000;" parent="VFBNxHkXD9lgY4H8Egre-162" source="VFBNxHkXD9lgY4H8Egre-119" edge="1">
          <mxGeometry relative="1" as="geometry">
            <mxPoint x="84.73958333333336" y="246.32895888014" as="targetPoint" />
          </mxGeometry>
        </mxCell>
        <mxCell id="VFBNxHkXD9lgY4H8Egre-135" style="edgeStyle=none;rounded=0;orthogonalLoop=1;jettySize=auto;html=1;exitX=0.5;exitY=0;exitDx=0;exitDy=0;dashed=1;dashPattern=1 1;endArrow=none;endFill=0;strokeColor=#FF0000;startArrow=none;" parent="VFBNxHkXD9lgY4H8Egre-162" source="VFBNxHkXD9lgY4H8Egre-136" edge="1">
          <mxGeometry relative="1" as="geometry">
            <mxPoint x="154.63288834951436" y="195.83464566929135" as="targetPoint" />
          </mxGeometry>
        </mxCell>
        <mxCell id="VFBNxHkXD9lgY4H8Egre-136" value="" style="ellipse;whiteSpace=wrap;html=1;aspect=fixed;strokeColor=#000000;strokeWidth=1;fillColor=#000000;" parent="VFBNxHkXD9lgY4H8Egre-162" vertex="1">
          <mxGeometry x="153.28125" y="194.89763779527559" width="2.811023622047244" height="2.811023622047244" as="geometry" />
        </mxCell>
        <mxCell id="VFBNxHkXD9lgY4H8Egre-137" value="" style="edgeStyle=none;rounded=0;orthogonalLoop=1;jettySize=auto;html=1;exitX=0.5;exitY=0;exitDx=0;exitDy=0;dashed=1;dashPattern=1 1;endArrow=none;endFill=0;strokeColor=#FF0000;" parent="VFBNxHkXD9lgY4H8Egre-162" source="VFBNxHkXD9lgY4H8Egre-119" target="VFBNxHkXD9lgY4H8Egre-136" edge="1">
          <mxGeometry relative="1" as="geometry">
            <mxPoint x="154.63288834951436" y="195.83464566929135" as="targetPoint" />
            <mxPoint x="154.6875" y="210.82677165354332" as="sourcePoint" />
          </mxGeometry>
        </mxCell>
        <mxCell id="VFBNxHkXD9lgY4H8Egre-139" value="" style="ellipse;whiteSpace=wrap;html=1;aspect=fixed;strokeColor=#000000;strokeWidth=1;fillColor=#000000;" parent="VFBNxHkXD9lgY4H8Egre-162" vertex="1">
          <mxGeometry x="172.5" y="201.45669291338584" width="2.811023622047244" height="2.811023622047244" as="geometry" />
        </mxCell>
        <mxCell id="VFBNxHkXD9lgY4H8Egre-146" style="edgeStyle=none;rounded=0;orthogonalLoop=1;jettySize=auto;html=1;exitX=1;exitY=0.5;exitDx=0;exitDy=0;entryX=0;entryY=0.5;entryDx=0;entryDy=0;dashed=1;dashPattern=1 1;endArrow=none;endFill=0;strokeColor=#FF0000;" parent="VFBNxHkXD9lgY4H8Egre-162" source="VFBNxHkXD9lgY4H8Egre-136" target="VFBNxHkXD9lgY4H8Egre-139" edge="1">
          <mxGeometry relative="1" as="geometry" />
        </mxCell>
        <mxCell id="VFBNxHkXD9lgY4H8Egre-144" style="edgeStyle=none;rounded=0;orthogonalLoop=1;jettySize=auto;html=1;exitX=0;exitY=0;exitDx=0;exitDy=0;entryX=1;entryY=1;entryDx=0;entryDy=0;dashed=1;dashPattern=1 1;endArrow=none;endFill=0;strokeColor=#FF0000;" parent="VFBNxHkXD9lgY4H8Egre-162" source="VFBNxHkXD9lgY4H8Egre-140" target="VFBNxHkXD9lgY4H8Egre-139" edge="1">
          <mxGeometry relative="1" as="geometry" />
        </mxCell>
        <mxCell id="VFBNxHkXD9lgY4H8Egre-140" value="" style="ellipse;whiteSpace=wrap;html=1;aspect=fixed;strokeColor=#000000;strokeWidth=1;fillColor=#000000;" parent="VFBNxHkXD9lgY4H8Egre-162" vertex="1">
          <mxGeometry x="175.3125" y="221.13385826771653" width="2.811023622047244" height="2.811023622047244" as="geometry" />
        </mxCell>
        <mxCell id="VFBNxHkXD9lgY4H8Egre-145" style="edgeStyle=none;rounded=0;orthogonalLoop=1;jettySize=auto;html=1;exitX=1;exitY=1;exitDx=0;exitDy=0;entryX=0;entryY=0;entryDx=0;entryDy=0;dashed=1;dashPattern=1 1;endArrow=none;endFill=0;strokeColor=#FF0000;" parent="VFBNxHkXD9lgY4H8Egre-162" source="VFBNxHkXD9lgY4H8Egre-119" target="VFBNxHkXD9lgY4H8Egre-140" edge="1">
          <mxGeometry relative="1" as="geometry" />
        </mxCell>
        <mxCell id="VFBNxHkXD9lgY4H8Egre-159" value="&lt;font style=&quot;font-size: 18px&quot;&gt;$$Z_c$$&lt;/font&gt;" style="text;html=1;align=center;verticalAlign=middle;resizable=0;points=[];autosize=1;strokeColor=none;fillColor=none;" parent="VFBNxHkXD9lgY4H8Egre-162" vertex="1">
          <mxGeometry x="434.0625" y="87.14173228346456" width="81" height="21" as="geometry" />
        </mxCell>
        <mxCell id="VFBNxHkXD9lgY4H8Egre-158" value="$$\triangle PO_cA \backsim \triangle P&#39;O_cB \Rightarrow \frac{Z_c}{y} = \frac{PO_c}{P&#39;O_c}=\frac{AO_c}{BO_c}$$" style="text;html=1;align=center;verticalAlign=middle;resizable=0;points=[];autosize=1;strokeColor=none;fillColor=none;fontSize=18;fontFamily=Times New Roman;" parent="1" vertex="1">
          <mxGeometry x="722" y="519" width="890" height="27" as="geometry" />
        </mxCell>
        <mxCell id="VFBNxHkXD9lgY4H8Egre-160" value="$$\triangle PO_cC \backsim \triangle P&#39;O_cE \Rightarrow \frac{X_c}{x} = \frac{PO_c}{P&#39;O_c}=\frac{CO_c}{EO_c}$$" style="text;html=1;align=center;verticalAlign=middle;resizable=0;points=[];autosize=1;strokeColor=none;fillColor=none;fontSize=18;fontFamily=Times New Roman;" parent="1" vertex="1">
          <mxGeometry x="719" y="580" width="889" height="27" as="geometry" />
        </mxCell>
        <mxCell id="VFBNxHkXD9lgY4H8Egre-41" value="&lt;font face=&quot;Times New Roman&quot; style=&quot;font-size: 18px&quot;&gt;$$\Rightarrow \quad\begin{bmatrix} u \\v \\1 &lt;br&gt;\end{bmatrix}&amp;nbsp; = \begin{bmatrix} \frac{1}{\mathrm{d}x}&lt;br&gt;&amp;nbsp;&amp;amp; 0 &amp;amp; u_0 \\ 0 &lt;br&gt;&amp;amp; \frac{1}{\mathrm{d}y} &amp;amp; v_0 \\ 0 &amp;amp; 0 &amp;amp; 1 \end{bmatrix} \begin{bmatrix} x \\ y \\ 1 \end{bmatrix}$$&lt;/font&gt;" style="text;html=1;align=center;verticalAlign=middle;resizable=0;points=[];autosize=1;strokeColor=none;fillColor=none;" parent="1" vertex="1">
          <mxGeometry x="194.9967893353361" y="988" width="772" height="69" as="geometry" />
        </mxCell>
        <mxCell id="VFBNxHkXD9lgY4H8Egre-42" value="" style="group" parent="1" vertex="1" connectable="0">
          <mxGeometry x="35" y="717" width="561.0281637251221" height="371" as="geometry" />
        </mxCell>
        <mxCell id="VFBNxHkXD9lgY4H8Egre-6" value="&lt;font face=&quot;Times New Roman&quot; style=&quot;font-size: 30px&quot;&gt;四系坐标变换&lt;/font&gt;" style="text;html=1;align=center;verticalAlign=middle;resizable=0;points=[];autosize=1;strokeColor=none;fillColor=none;fontFamily=Times New Roman;" parent="VFBNxHkXD9lgY4H8Egre-42" vertex="1">
          <mxGeometry x="19.50056327450244" y="-1" width="191" height="25" as="geometry" />
        </mxCell>
        <mxCell id="VFBNxHkXD9lgY4H8Egre-12" value="" style="endArrow=classic;startArrow=classic;html=1;rounded=0;edgeStyle=orthogonalEdgeStyle;fillColor=#d5e8d4;strokeColor=#82b366;" parent="VFBNxHkXD9lgY4H8Egre-42" edge="1">
          <mxGeometry width="50" height="50" relative="1" as="geometry">
            <mxPoint x="151.97596695456252" y="110" as="sourcePoint" />
            <mxPoint x="32.07285016898235" y="333" as="targetPoint" />
          </mxGeometry>
        </mxCell>
        <mxCell id="VFBNxHkXD9lgY4H8Egre-14" value="&lt;font face=&quot;Times New Roman&quot; style=&quot;font-size: 18px&quot;&gt;$$O_1$$&lt;/font&gt;" style="text;html=1;align=center;verticalAlign=middle;resizable=0;points=[];autosize=1;strokeColor=#82b366;fillColor=#d5e8d4;" parent="VFBNxHkXD9lgY4H8Egre-42" vertex="1">
          <mxGeometry y="81" width="78" height="21" as="geometry" />
        </mxCell>
        <mxCell id="VFBNxHkXD9lgY4H8Egre-15" value="&lt;font face=&quot;Times New Roman&quot; style=&quot;font-size: 18px&quot;&gt;U(/pix)&lt;/font&gt;" style="text;html=1;align=center;verticalAlign=middle;resizable=0;points=[];autosize=1;strokeColor=#82b366;fillColor=#d5e8d4;" parent="VFBNxHkXD9lgY4H8Egre-42" vertex="1">
          <mxGeometry x="141.12054074352235" y="77" width="64" height="21" as="geometry" />
        </mxCell>
        <mxCell id="VFBNxHkXD9lgY4H8Egre-16" value="&lt;font face=&quot;Times New Roman&quot; style=&quot;font-size: 18px&quot;&gt;V(/pix)&lt;/font&gt;" style="text;html=1;align=center;verticalAlign=middle;resizable=0;points=[];autosize=1;strokeColor=#82b366;fillColor=#d5e8d4;rotation=90;" parent="VFBNxHkXD9lgY4H8Egre-42" vertex="1">
          <mxGeometry x="3.4539992489673303" y="288" width="64" height="21" as="geometry" />
        </mxCell>
        <mxCell id="VFBNxHkXD9lgY4H8Egre-18" value="&lt;font face=&quot;Times New Roman&quot; style=&quot;font-size: 18px&quot;&gt;Pix Coordinate System&lt;/font&gt;" style="text;html=1;align=center;verticalAlign=middle;resizable=0;points=[];autosize=1;strokeColor=#82b366;fillColor=#d5e8d4;" parent="VFBNxHkXD9lgY4H8Egre-42" vertex="1">
          <mxGeometry x="52.30341719864814" y="219" width="177" height="21" as="geometry" />
        </mxCell>
        <mxCell id="VFBNxHkXD9lgY4H8Egre-19" value="" style="endArrow=classic;startArrow=classic;html=1;rounded=0;edgeStyle=orthogonalEdgeStyle;fillColor=#dae8fc;strokeColor=#6c8ebf;" parent="VFBNxHkXD9lgY4H8Egre-42" edge="1">
          <mxGeometry width="50" height="50" relative="1" as="geometry">
            <mxPoint x="350.3342095381149" y="114" as="sourcePoint" />
            <mxPoint x="230.43109275253474" y="337" as="targetPoint" />
          </mxGeometry>
        </mxCell>
        <mxCell id="VFBNxHkXD9lgY4H8Egre-20" value="&lt;font face=&quot;Times New Roman&quot; style=&quot;font-size: 18px&quot;&gt;$$O_2$$&lt;/font&gt;" style="text;html=1;align=center;verticalAlign=middle;resizable=0;points=[];autosize=1;strokeColor=none;fillColor=none;" parent="VFBNxHkXD9lgY4H8Egre-42" vertex="1">
          <mxGeometry x="198.3582425835524" y="85" width="78" height="21" as="geometry" />
        </mxCell>
        <mxCell id="VFBNxHkXD9lgY4H8Egre-21" value="&lt;font face=&quot;Times New Roman&quot; style=&quot;font-size: 18px&quot;&gt;X(/mm)&lt;/font&gt;" style="text;html=1;align=center;verticalAlign=middle;resizable=0;points=[];autosize=1;strokeColor=#6c8ebf;fillColor=#dae8fc;" parent="VFBNxHkXD9lgY4H8Egre-42" vertex="1">
          <mxGeometry x="338.49192639879834" y="81" width="69" height="21" as="geometry" />
        </mxCell>
        <mxCell id="VFBNxHkXD9lgY4H8Egre-22" value="&lt;font face=&quot;Times New Roman&quot; style=&quot;font-size: 18px&quot;&gt;Y(/mm)&lt;/font&gt;" style="text;html=1;align=center;verticalAlign=middle;resizable=0;points=[];autosize=1;strokeColor=#6c8ebf;fillColor=#dae8fc;rotation=90;" parent="VFBNxHkXD9lgY4H8Egre-42" vertex="1">
          <mxGeometry x="200.82538490424335" y="292" width="69" height="21" as="geometry" />
        </mxCell>
        <mxCell id="VFBNxHkXD9lgY4H8Egre-23" value="&lt;font face=&quot;Times New Roman&quot; style=&quot;font-size: 18px&quot;&gt;Image Coordinate System&lt;/font&gt;" style="text;html=1;align=center;verticalAlign=middle;resizable=0;points=[];autosize=1;strokeColor=#6c8ebf;fillColor=#dae8fc;" parent="VFBNxHkXD9lgY4H8Egre-42" vertex="1">
          <mxGeometry x="245.7273751408186" y="223" width="198" height="21" as="geometry" />
        </mxCell>
        <mxCell id="VFBNxHkXD9lgY4H8Egre-25" value="" style="shape=waypoint;sketch=0;fillStyle=solid;size=6;pointerEvents=1;points=[];fillColor=#d5e8d4;resizable=0;rotatable=0;perimeter=centerPerimeter;snapToPoint=1;strokeColor=#82b366;" parent="VFBNxHkXD9lgY4H8Egre-42" vertex="1">
          <mxGeometry x="112.50168982350733" y="136" width="40" height="40" as="geometry" />
        </mxCell>
        <mxCell id="VFBNxHkXD9lgY4H8Egre-26" value="" style="shape=waypoint;sketch=0;fillStyle=solid;size=6;pointerEvents=1;points=[];fillColor=#dae8fc;resizable=0;rotatable=0;perimeter=centerPerimeter;snapToPoint=1;strokeColor=#6c8ebf;" parent="VFBNxHkXD9lgY4H8Egre-42" vertex="1">
          <mxGeometry x="326.64964325948176" y="136" width="40" height="40" as="geometry" />
        </mxCell>
        <mxCell id="VFBNxHkXD9lgY4H8Egre-27" value="&lt;font face=&quot;Times New Roman&quot; style=&quot;font-size: 18px&quot;&gt;(u,v)&lt;/font&gt;" style="text;html=1;align=center;verticalAlign=middle;resizable=0;points=[];autosize=1;strokeColor=#82b366;fillColor=#d5e8d4;" parent="VFBNxHkXD9lgY4H8Egre-42" vertex="1">
          <mxGeometry x="127.30454374765301" y="154" width="46" height="21" as="geometry" />
        </mxCell>
        <mxCell id="VFBNxHkXD9lgY4H8Egre-28" value="&lt;font face=&quot;Times New Roman&quot; style=&quot;font-size: 18px&quot;&gt;(x,y)&lt;/font&gt;" style="text;html=1;align=center;verticalAlign=middle;resizable=0;points=[];autosize=1;strokeColor=#6c8ebf;fillColor=#dae8fc;" parent="VFBNxHkXD9lgY4H8Egre-42" vertex="1">
          <mxGeometry x="341.9459256477657" y="160" width="46" height="21" as="geometry" />
        </mxCell>
        <mxCell id="VFBNxHkXD9lgY4H8Egre-29" value="&lt;font face=&quot;Times New Roman&quot; style=&quot;font-size: 20px&quot;&gt;图片像素坐标&lt;/font&gt;" style="text;html=1;align=center;verticalAlign=middle;resizable=0;points=[];autosize=1;strokeColor=none;fillColor=none;" parent="VFBNxHkXD9lgY4H8Egre-42" vertex="1">
          <mxGeometry x="63.15884340968832" y="349" width="131" height="22" as="geometry" />
        </mxCell>
        <mxCell id="VFBNxHkXD9lgY4H8Egre-30" value="&lt;div style=&quot;text-align: center&quot;&gt;&lt;span style=&quot;font-size: 20px&quot;&gt;&lt;font face=&quot;times new roman&quot;&gt;象面图像坐标&lt;/font&gt;&lt;/span&gt;&lt;/div&gt;" style="text;whiteSpace=wrap;html=1;" parent="VFBNxHkXD9lgY4H8Egre-42" vertex="1">
          <mxGeometry x="284.21" y="346" width="134.79" height="23" as="geometry" />
        </mxCell>
        <mxCell id="VFBNxHkXD9lgY4H8Egre-31" value="&lt;font face=&quot;Times New Roman&quot; style=&quot;font-size: 18px&quot; color=&quot;#1c2bff&quot;&gt;$$用 \mathrm{d}x ,\mathrm{d}y 代表感光元件的长和宽$$&lt;/font&gt;" style="text;html=1;align=center;verticalAlign=middle;resizable=0;points=[];autosize=1;strokeColor=none;fillColor=none;" parent="VFBNxHkXD9lgY4H8Egre-42" vertex="1">
          <mxGeometry x="212.1742395794217" y="6" width="456" height="21" as="geometry" />
        </mxCell>
        <mxCell id="VFBNxHkXD9lgY4H8Egre-34" value="&lt;font face=&quot;Times New Roman&quot; style=&quot;font-size: 18px&quot;&gt;$$(u_0,v_0)$$&lt;/font&gt;" style="text;html=1;align=center;verticalAlign=middle;resizable=0;points=[];autosize=1;" parent="VFBNxHkXD9lgY4H8Egre-42" vertex="1">
          <mxGeometry x="213.1610965076981" y="84" width="118" height="21" as="geometry" />
        </mxCell>
        <mxCell id="VFBNxHkXD9lgY4H8Egre-40" value="" style="group" parent="1" vertex="1" connectable="0">
          <mxGeometry x="531.0010514457379" y="825" width="140.62711227938414" height="109" as="geometry" />
        </mxCell>
        <mxCell id="VFBNxHkXD9lgY4H8Egre-36" value="" style="shape=curlyBracket;whiteSpace=wrap;html=1;rounded=1;" parent="VFBNxHkXD9lgY4H8Egre-40" vertex="1">
          <mxGeometry x="29.605707848291395" width="9.868569282763799" height="109" as="geometry" />
        </mxCell>
        <mxCell id="VFBNxHkXD9lgY4H8Egre-39" value="&lt;font face=&quot;Times New Roman&quot; style=&quot;font-size: 18px&quot;&gt;$$v = \frac{y}{\mathrm{d}y}+v_0$$&lt;/font&gt;" style="text;html=1;align=center;verticalAlign=middle;resizable=0;points=[];autosize=1;strokeColor=none;fillColor=none;" parent="VFBNxHkXD9lgY4H8Egre-40" vertex="1">
          <mxGeometry x="-32" y="69" width="285" height="21" as="geometry" />
        </mxCell>
        <mxCell id="VFBNxHkXD9lgY4H8Egre-37" value="&lt;font face=&quot;Times New Roman&quot; style=&quot;font-size: 18px&quot;&gt;$$u = \frac{x}{\mathrm{d}x}+u_0$$&lt;/font&gt;" style="text;html=1;align=center;verticalAlign=middle;resizable=0;points=[];autosize=1;strokeColor=none;fillColor=none;" parent="1" vertex="1">
          <mxGeometry x="503.00105144573786" y="842" width="285" height="21" as="geometry" />
        </mxCell>
        <mxCell id="VFBNxHkXD9lgY4H8Egre-161" value="$$\triangle DO_cC \backsim \triangle EO_2O_c \Rightarrow \frac{Y_c}{y} = \frac{CO_c}{EO_c}=\frac{PO_c}{P&#39;O_c}=\frac{Z_c}{f}$$" style="text;html=1;align=center;verticalAlign=middle;resizable=0;points=[];autosize=1;strokeColor=none;fillColor=none;fontSize=18;fontFamily=Times New Roman;" parent="1" vertex="1">
          <mxGeometry x="671" y="643" width="1022" height="27" as="geometry" />
        </mxCell>
        <mxCell id="VFBNxHkXD9lgY4H8Egre-181" value="" style="group" parent="1" vertex="1" connectable="0">
          <mxGeometry x="660.9997746901988" y="869" width="1233.9956665414948" height="248" as="geometry" />
        </mxCell>
        <mxCell id="VFBNxHkXD9lgY4H8Egre-171" value="&lt;font face=&quot;Times New Roman&quot; style=&quot;font-size: 18px&quot;&gt;$$ \quad\begin{bmatrix} u \\v \\1 \end{bmatrix}&amp;nbsp; = \begin{bmatrix} \frac{1}{\mathrm{d}x} &amp;amp; 0 &amp;amp; u_0 \\ 0 &amp;amp; &lt;br&gt;\frac{1}{\mathrm{d}y} &amp;amp; v_0 \\ 0 &amp;amp; 0 &amp;amp; 1 \end{bmatrix} \begin{bmatrix} x \\ y \\ 1 \end{bmatrix}$$&lt;/font&gt;" style="text;html=1;align=center;verticalAlign=middle;resizable=0;points=[];autosize=1;strokeColor=none;fillColor=none;" parent="VFBNxHkXD9lgY4H8Egre-181" vertex="1">
          <mxGeometry x="-47" y="46.5" width="809" height="37" as="geometry" />
        </mxCell>
        <mxCell id="VFBNxHkXD9lgY4H8Egre-173" value="$$\quad Z_c \begin{bmatrix} x \\ y \\ 1 \end{bmatrix} = \begin{bmatrix} f &amp;amp; 0 &amp;amp; 0 &amp;amp; 0\\&lt;br&gt;0&amp;amp;f&amp;amp;0&amp;amp;0\\ 0&amp;amp;0&amp;amp;1&amp;amp;0 \end{bmatrix}&lt;br&gt;\begin{bmatrix} X_c\\Y_c\\ Z_c \\1 \end{bmatrix}$$" style="text;html=1;align=center;verticalAlign=middle;resizable=0;points=[];autosize=1;strokeColor=none;fillColor=none;fontSize=18;fontFamily=Times New Roman;" parent="VFBNxHkXD9lgY4H8Egre-181" vertex="1">
          <mxGeometry x="39.99566654149476" y="152.5" width="656" height="71" as="geometry" />
        </mxCell>
        <mxCell id="VFBNxHkXD9lgY4H8Egre-180" value="" style="shape=curlyBracket;whiteSpace=wrap;html=1;rounded=1;strokeColor=#000000;strokeWidth=1;fillColor=#000000;" parent="VFBNxHkXD9lgY4H8Egre-181" vertex="1">
          <mxGeometry x="218.00022530980118" width="20" height="248" as="geometry" />
        </mxCell>
        <mxCell id="VFBNxHkXD9lgY4H8Egre-192" value="$$\Rightarrow\begin{bmatrix} u \\ v \\ 1 \end{bmatrix} =\frac{1}{Z_c}&lt;br&gt;\begin{bmatrix}\frac{1}{\mathrm{d}x} &amp;amp; 0 &amp;amp; u_0 \\ 0 &amp;amp;&lt;br&gt;\frac{1}{\mathrm{d}y} &amp;amp; v_0 \\ 0 &amp;amp; 0 &amp;amp; 1&amp;nbsp;&lt;br&gt;&amp;nbsp;\end{bmatrix}\begin{bmatrix} f &amp;amp; 0 &amp;amp; 0 &amp;amp; 0\\&lt;br&gt;0&amp;amp;f&amp;amp;0&amp;amp;0\\ 0&amp;amp;0&amp;amp;1&amp;amp;0 \end{bmatrix}&lt;br&gt;\begin{bmatrix} X_c\\Y_c\\ Z_c \\1 \end{bmatrix}$$" style="text;html=1;align=center;verticalAlign=middle;resizable=0;points=[];autosize=1;strokeColor=none;fillColor=none;fontSize=18;fontFamily=Times New Roman;" parent="VFBNxHkXD9lgY4H8Egre-181" vertex="1">
          <mxGeometry x="481.99566654149476" y="52.5" width="532" height="137" as="geometry" />
        </mxCell>
        <mxCell id="kqMhSMfBHzRtL6_IHHuh-1" style="edgeStyle=orthogonalEdgeStyle;rounded=0;orthogonalLoop=1;jettySize=auto;html=1;" parent="VFBNxHkXD9lgY4H8Egre-181" source="VFBNxHkXD9lgY4H8Egre-173" target="VFBNxHkXD9lgY4H8Egre-173" edge="1">
          <mxGeometry relative="1" as="geometry" />
        </mxCell>
        <mxCell id="VFBNxHkXD9lgY4H8Egre-167" value="" style="group" parent="1" vertex="1" connectable="0">
          <mxGeometry x="888" y="700" width="696" height="125" as="geometry" />
        </mxCell>
        <mxCell id="VFBNxHkXD9lgY4H8Egre-163" value="" style="shape=curlyBracket;whiteSpace=wrap;html=1;rounded=1;strokeColor=#000000;strokeWidth=1;fillColor=#000000;" parent="VFBNxHkXD9lgY4H8Egre-167" vertex="1">
          <mxGeometry x="30" width="30" height="125" as="geometry" />
        </mxCell>
        <mxCell id="VFBNxHkXD9lgY4H8Egre-165" value="$$x = \frac{X_c}{Z_c}f$$" style="text;html=1;align=center;verticalAlign=middle;resizable=0;points=[];autosize=1;strokeColor=none;fillColor=none;fontSize=18;fontFamily=Times New Roman;" parent="VFBNxHkXD9lgY4H8Egre-167" vertex="1">
          <mxGeometry x="1" y="19" width="207" height="27" as="geometry" />
        </mxCell>
        <mxCell id="VFBNxHkXD9lgY4H8Egre-166" value="$$y = \frac{Y_c}{Z_c}f$$" style="text;html=1;align=center;verticalAlign=middle;resizable=0;points=[];autosize=1;strokeColor=none;fillColor=none;fontSize=18;fontFamily=Times New Roman;" parent="VFBNxHkXD9lgY4H8Egre-167" vertex="1">
          <mxGeometry y="76" width="207" height="27" as="geometry" />
        </mxCell>
        <mxCell id="VFBNxHkXD9lgY4H8Egre-170" value="$$\Rightarrow \quad Z_c \begin{bmatrix} x \\ y \\ 1 \end{bmatrix} = \begin{bmatrix} f &amp;amp; 0 &amp;amp; 0 &amp;amp; 0\\&lt;br&gt;0&amp;amp;f&amp;amp;0&amp;amp;0\\ 0&amp;amp;0&amp;amp;1&amp;amp;0 \end{bmatrix}&lt;br&gt;\begin{bmatrix} X_c\\Y_c\\ Z_c \\1 \end{bmatrix}$$" style="text;html=1;align=center;verticalAlign=middle;resizable=0;points=[];autosize=1;strokeColor=none;fillColor=none;fontSize=18;fontFamily=Times New Roman;" parent="VFBNxHkXD9lgY4H8Egre-167" vertex="1">
          <mxGeometry x="-52" y="30" width="748" height="71" as="geometry" />
        </mxCell>
        <mxCell id="CrF_3GDUKIacaTsRTHc1-73" value="依此类推其他旋转轴" style="text;html=1;align=center;verticalAlign=middle;resizable=0;points=[];autosize=1;strokeColor=none;fillColor=none;fontSize=14;fontFamily=Times New Roman;fontColor=#FF0000;" parent="1" vertex="1">
          <mxGeometry x="1747" y="598" width="137" height="22" as="geometry" />
        </mxCell>
        <mxCell id="CrF_3GDUKIacaTsRTHc1-84" value="" style="group" parent="1" vertex="1" connectable="0">
          <mxGeometry x="1854" y="622" width="595" height="337" as="geometry" />
        </mxCell>
        <mxCell id="CrF_3GDUKIacaTsRTHc1-78" value="" style="group" parent="CrF_3GDUKIacaTsRTHc1-84" vertex="1" connectable="0">
          <mxGeometry width="311" height="337" as="geometry" />
        </mxCell>
        <mxCell id="CrF_3GDUKIacaTsRTHc1-74" value="" style="shape=curlyBracket;whiteSpace=wrap;html=1;rounded=1;labelBackgroundColor=none;fontFamily=Times New Roman;fontSize=14;fontColor=#FF0000;strokeColor=#000000;strokeWidth=1;verticalAlign=top;" parent="CrF_3GDUKIacaTsRTHc1-78" vertex="1">
          <mxGeometry width="20" height="337" as="geometry" />
        </mxCell>
        <mxCell id="CrF_3GDUKIacaTsRTHc1-75" value="$$\begin{bmatrix}x^*\\y^*\\z^*\end{bmatrix}&lt;br&gt;=\begin{bmatrix}\cos\theta&amp;amp;\sin\theta&amp;amp;0\\&lt;br&gt;-\sin\theta&amp;amp;\cos\theta&amp;amp;0\\0&amp;amp;0&amp;amp;1\end{bmatrix}&lt;br&gt;\begin{bmatrix}x\\y\\z\end{bmatrix}\qquad(z)&lt;br&gt;$$" style="text;html=1;align=center;verticalAlign=middle;resizable=0;points=[];autosize=1;strokeColor=none;fillColor=none;fontSize=14;fontFamily=Times New Roman;fontColor=#000000;" parent="CrF_3GDUKIacaTsRTHc1-78" vertex="1">
          <mxGeometry x="30" y="223" width="281" height="90" as="geometry" />
        </mxCell>
        <mxCell id="CrF_3GDUKIacaTsRTHc1-76" value="$$\begin{bmatrix}x^*\\y^*\\z^*\end{bmatrix}&lt;br&gt;=\begin{bmatrix}\cos\alpha&amp;amp;0&amp;amp;\sin\alpha\\&lt;br&gt;0&amp;amp;1&amp;amp;0\\&lt;br&gt;-\sin\alpha&amp;amp;0&amp;amp;\cos\alpha&lt;br&gt;\end{bmatrix}&lt;br&gt;\begin{bmatrix}x\\y\\z\end{bmatrix}\qquad(y)&lt;br&gt;$$" style="text;html=1;align=center;verticalAlign=middle;resizable=0;points=[];autosize=1;strokeColor=none;fillColor=none;fontSize=14;fontFamily=Times New Roman;fontColor=#000000;" parent="CrF_3GDUKIacaTsRTHc1-78" vertex="1">
          <mxGeometry x="35" y="96" width="275" height="124" as="geometry" />
        </mxCell>
        <mxCell id="CrF_3GDUKIacaTsRTHc1-77" value="$$\begin{bmatrix}x^*\\y^*\\z^*\end{bmatrix}&lt;br&gt;=\begin{bmatrix}1&amp;amp;0&amp;amp;0\\&lt;br&gt;0&amp;amp;\cos\alpha&amp;amp;\sin\alpha\\&lt;br&gt;0&amp;amp;-\sin\alpha&amp;amp;\cos\alpha\end{bmatrix}&lt;br&gt;\begin{bmatrix}x\\y\\z\end{bmatrix}\qquad(x)&lt;br&gt;$$" style="text;html=1;align=center;verticalAlign=middle;resizable=0;points=[];autosize=1;strokeColor=none;fillColor=none;fontSize=14;fontFamily=Times New Roman;fontColor=#000000;" parent="CrF_3GDUKIacaTsRTHc1-78" vertex="1">
          <mxGeometry x="35" y="1" width="275" height="107" as="geometry" />
        </mxCell>
        <mxCell id="CrF_3GDUKIacaTsRTHc1-81" value="$$\Rightarrow \quad\begin{bmatrix}x^*\\y^*\\z^*\end{bmatrix}&lt;br&gt;=R_1&lt;br&gt;\begin{bmatrix}x\\y\\z\end{bmatrix}&lt;br&gt;$$" style="text;html=1;align=center;verticalAlign=middle;resizable=0;points=[];autosize=1;strokeColor=none;fillColor=none;fontSize=14;fontFamily=Times New Roman;fontColor=#000000;" parent="CrF_3GDUKIacaTsRTHc1-84" vertex="1">
          <mxGeometry x="214" y="19" width="377" height="73" as="geometry" />
        </mxCell>
        <mxCell id="CrF_3GDUKIacaTsRTHc1-82" value="$$\Rightarrow \quad\begin{bmatrix}x^*\\y^*\\z^*\end{bmatrix}&lt;br&gt;=R_2&lt;br&gt;\begin{bmatrix}x\\y\\z\end{bmatrix}&lt;br&gt;$$" style="text;html=1;align=center;verticalAlign=middle;resizable=0;points=[];autosize=1;strokeColor=none;fillColor=none;fontSize=14;fontFamily=Times New Roman;fontColor=#000000;" parent="CrF_3GDUKIacaTsRTHc1-84" vertex="1">
          <mxGeometry x="216" y="114" width="377" height="73" as="geometry" />
        </mxCell>
        <mxCell id="CrF_3GDUKIacaTsRTHc1-83" value="$$\Rightarrow \quad\begin{bmatrix}x^*\\y^*\\z^*\end{bmatrix}&lt;br&gt;=R_3&lt;br&gt;\begin{bmatrix}x\\y\\z\end{bmatrix}&lt;br&gt;$$" style="text;html=1;align=center;verticalAlign=middle;resizable=0;points=[];autosize=1;strokeColor=none;fillColor=none;fontSize=14;fontFamily=Times New Roman;fontColor=#000000;" parent="CrF_3GDUKIacaTsRTHc1-84" vertex="1">
          <mxGeometry x="218" y="228" width="377" height="73" as="geometry" />
        </mxCell>
        <mxCell id="CrF_3GDUKIacaTsRTHc1-124" value="1" style="group" parent="1" vertex="1" connectable="0">
          <mxGeometry x="2532" y="502" width="571.9954412316938" height="256" as="geometry" />
        </mxCell>
        <mxCell id="CrF_3GDUKIacaTsRTHc1-110" value="" style="shape=curlyBracket;whiteSpace=wrap;html=1;rounded=1;labelBackgroundColor=none;fontFamily=Times New Roman;fontSize=14;fontColor=#FF365E;strokeColor=#000000;strokeWidth=1;verticalAlign=top;" parent="CrF_3GDUKIacaTsRTHc1-124" vertex="1">
          <mxGeometry y="13" width="20" height="243" as="geometry" />
        </mxCell>
        <mxCell id="CrF_3GDUKIacaTsRTHc1-103" value="&lt;font color=&quot;#000000&quot;&gt;$$\begin{bmatrix}&lt;br&gt;x^*\\y^*\\z^*\\1\end{bmatrix}&lt;br&gt;=\begin{bmatrix}R&amp;amp;T\\&lt;br&gt;0&amp;amp;1&lt;br&gt;\end{bmatrix}&lt;br&gt;\begin{bmatrix}x\\y\\z\\1\end{bmatrix}&lt;br&gt;$$&lt;/font&gt;" style="text;html=1;align=center;verticalAlign=middle;resizable=0;points=[];autosize=1;strokeColor=none;fillColor=none;fontSize=14;fontFamily=Times New Roman;fontColor=#FF0000;" parent="CrF_3GDUKIacaTsRTHc1-124" vertex="1">
          <mxGeometry x="12" y="14" width="235" height="124" as="geometry" />
        </mxCell>
        <mxCell id="CrF_3GDUKIacaTsRTHc1-111" value="$$\begin{bmatrix} u \\ v \\ 1 \end{bmatrix} =\frac{1}{Z_c}&lt;br&gt;\begin{bmatrix}\frac{1}{\mathrm{d}x} &amp;amp; 0 &amp;amp; u_0 \\ 0 &amp;amp;&lt;br&gt;\frac{1}{\mathrm{d}y} &amp;amp; v_0 \\ 0 &amp;amp; 0 &amp;amp; 1&amp;nbsp;&lt;br&gt;&amp;nbsp;\end{bmatrix}\begin{bmatrix} f &amp;amp; 0 &amp;amp; 0 &amp;amp; 0\\&lt;br&gt;0&amp;amp;f&amp;amp;0&amp;amp;0\\ 0&amp;amp;0&amp;amp;1&amp;amp;0 \end{bmatrix}&lt;br&gt;\begin{bmatrix} X_c\\Y_c\\ Z_c \\1 \end{bmatrix}$$" style="text;html=1;align=center;verticalAlign=middle;resizable=0;points=[];autosize=1;strokeColor=none;fillColor=none;fontSize=18;fontFamily=Times New Roman;" parent="CrF_3GDUKIacaTsRTHc1-124" vertex="1">
          <mxGeometry x="20.995441231693803" y="113" width="445" height="137" as="geometry" />
        </mxCell>
        <mxCell id="CrF_3GDUKIacaTsRTHc1-125" value="" style="group" parent="1" vertex="1" connectable="0">
          <mxGeometry x="2583.9992862221034" y="752" width="574.1161550095903" height="367" as="geometry" />
        </mxCell>
        <mxCell id="CrF_3GDUKIacaTsRTHc1-113" value="" style="shape=singleArrow;whiteSpace=wrap;html=1;labelBackgroundColor=none;fontFamily=Times New Roman;fontSize=14;fontColor=#FF365E;strokeColor=#FF0000;strokeWidth=1;verticalAlign=top;arrowWidth=0.4666666666666667;arrowSize=0.38;" parent="CrF_3GDUKIacaTsRTHc1-125" vertex="1">
          <mxGeometry x="38.120713777896526" y="238" width="100" height="60" as="geometry" />
        </mxCell>
        <mxCell id="CrF_3GDUKIacaTsRTHc1-114" value="$$\begin{bmatrix} u \\ v \\ 1 \end{bmatrix} =\frac{1}{Z_c}&lt;br&gt;\begin{bmatrix}\frac{f}{\mathrm{d}x} &amp;amp; 0 &amp;amp; u_0 &amp;amp;0\\ 0 &amp;amp;&lt;br&gt;\frac{f}{\mathrm{d}y} &amp;amp; v_0&amp;amp;0 \\ 0 &amp;amp; 0 &amp;amp; 1 &amp;amp;0&lt;br&gt;&amp;nbsp;\end{bmatrix}&lt;br&gt;\begin{bmatrix} R &amp;amp;T\\&lt;br&gt;&amp;nbsp;&amp;nbsp;\overrightarrow{0}&amp;amp; 1&amp;nbsp;&lt;br&gt;&amp;nbsp;\end{bmatrix}&lt;br style=&quot;font-size: 14px&quot;&gt;\begin{bmatrix} X_c\\Y_c\\ Z_c \\1 \end{bmatrix}$$" style="text;html=1;align=center;verticalAlign=middle;resizable=0;points=[];autosize=1;strokeColor=none;fillColor=none;fontSize=18;fontFamily=Times New Roman;" parent="CrF_3GDUKIacaTsRTHc1-125" vertex="1">
          <mxGeometry x="123.11615500959033" y="186" width="451" height="181" as="geometry" />
        </mxCell>
        <mxCell id="CrF_3GDUKIacaTsRTHc1-115" value="" style="shape=singleArrow;whiteSpace=wrap;html=1;labelBackgroundColor=none;fontFamily=Times New Roman;fontSize=14;fontColor=#FF365E;strokeColor=#FF0000;strokeWidth=1;verticalAlign=top;arrowWidth=0.4666666666666667;arrowSize=0.38;rotation=-50;" parent="CrF_3GDUKIacaTsRTHc1-125" vertex="1">
          <mxGeometry x="5.120713777896526" y="115" width="100" height="60" as="geometry" />
        </mxCell>
        <mxCell id="CrF_3GDUKIacaTsRTHc1-116" value="$$\begin{bmatrix} u \\ v \\ 1 \end{bmatrix} =\frac{1}{Z_c}&lt;br&gt;\begin{bmatrix}f_x &amp;amp; 0 &amp;amp; u_0 &amp;amp;0\\ 0 &amp;amp;&lt;br&gt;f_y&amp;amp; v_0&amp;amp;0 \\ 0 &amp;amp; 0 &amp;amp; 1 &amp;amp;0&lt;br&gt;&amp;nbsp;\end{bmatrix}&lt;br&gt;\begin{bmatrix} R &amp;amp;T\\&lt;br&gt;&amp;nbsp;\overrightarrow{0} &amp;amp; 1&amp;nbsp;&lt;br&gt;&amp;nbsp;\end{bmatrix}&lt;br style=&quot;font-size: 14px&quot;&gt;\begin{bmatrix} X_c\\Y_c\\ Z_c \\1 \end{bmatrix}$$" style="text;html=1;align=center;verticalAlign=middle;resizable=0;points=[];autosize=1;strokeColor=none;fillColor=none;fontSize=18;fontFamily=Times New Roman;" parent="CrF_3GDUKIacaTsRTHc1-125" vertex="1">
          <mxGeometry x="129.11615500959033" y="-5" width="445" height="181" as="geometry" />
        </mxCell>
        <mxCell id="CrF_3GDUKIacaTsRTHc1-117" value="&lt;font color=&quot;#000000&quot;&gt;相机内参矩阵&lt;/font&gt;" style="text;html=1;align=center;verticalAlign=middle;resizable=0;points=[];autosize=1;strokeColor=none;fillColor=none;fontSize=14;fontFamily=Times New Roman;fontColor=#FF365E;" parent="CrF_3GDUKIacaTsRTHc1-125" vertex="1">
          <mxGeometry x="279.00071377789664" y="181" width="95" height="22" as="geometry" />
        </mxCell>
        <mxCell id="CrF_3GDUKIacaTsRTHc1-118" value="&lt;font color=&quot;#000000&quot;&gt;相机外参矩阵&lt;/font&gt;" style="text;html=1;align=center;verticalAlign=middle;resizable=0;points=[];autosize=1;strokeColor=none;fillColor=none;fontSize=14;fontFamily=Times New Roman;fontColor=#FF365E;" parent="CrF_3GDUKIacaTsRTHc1-125" vertex="1">
          <mxGeometry x="409.00071377789664" y="181" width="95" height="22" as="geometry" />
        </mxCell>
        <mxCell id="CrF_3GDUKIacaTsRTHc1-70" value="" style="group" parent="1" vertex="1" connectable="0">
          <mxGeometry x="1711" y="27" width="616" height="516" as="geometry" />
        </mxCell>
        <mxCell id="CrF_3GDUKIacaTsRTHc1-61" value="&lt;font style=&quot;font-size: 21px&quot;&gt;$$\Rightarrow$$&lt;/font&gt;" style="text;html=1;align=center;verticalAlign=middle;resizable=0;points=[];autosize=1;strokeColor=none;fillColor=none;fontSize=14;fontFamily=Times New Roman;" parent="CrF_3GDUKIacaTsRTHc1-70" vertex="1">
          <mxGeometry y="447" width="154" height="24" as="geometry" />
        </mxCell>
        <mxCell id="CrF_3GDUKIacaTsRTHc1-69" value="" style="group" parent="CrF_3GDUKIacaTsRTHc1-70" vertex="1" connectable="0">
          <mxGeometry x="17" width="599" height="516" as="geometry" />
        </mxCell>
        <mxCell id="CrF_3GDUKIacaTsRTHc1-43" value="" style="group" parent="CrF_3GDUKIacaTsRTHc1-69" vertex="1" connectable="0">
          <mxGeometry width="502" height="392" as="geometry" />
        </mxCell>
        <mxCell id="JiJp0CD5MI4bdc2JUO58-11" value="" style="group" parent="CrF_3GDUKIacaTsRTHc1-43" vertex="1" connectable="0">
          <mxGeometry x="69" width="428" height="86" as="geometry" />
        </mxCell>
        <mxCell id="CrF_3GDUKIacaTsRTHc1-13" style="edgeStyle=none;rounded=0;orthogonalLoop=1;jettySize=auto;html=1;fontFamily=Times New Roman;fontSize=14;" parent="JiJp0CD5MI4bdc2JUO58-11" source="JiJp0CD5MI4bdc2JUO58-1" target="JiJp0CD5MI4bdc2JUO58-2" edge="1">
          <mxGeometry relative="1" as="geometry" />
        </mxCell>
        <mxCell id="JiJp0CD5MI4bdc2JUO58-1" value="&lt;font face=&quot;Times New Roman&quot; style=&quot;font-size: 30px&quot;&gt;世界坐标系&lt;/font&gt;" style="text;html=1;align=center;verticalAlign=middle;resizable=0;points=[];autosize=1;strokeColor=none;fillColor=none;" parent="JiJp0CD5MI4bdc2JUO58-11" vertex="1">
          <mxGeometry x="-123" y="-5" width="161" height="25" as="geometry" />
        </mxCell>
        <mxCell id="JiJp0CD5MI4bdc2JUO58-2" value="&lt;font face=&quot;Times New Roman&quot; style=&quot;font-size: 30px&quot;&gt;相机坐标系&lt;/font&gt;" style="text;html=1;align=center;verticalAlign=middle;resizable=0;points=[];autosize=1;strokeColor=none;fillColor=none;" parent="JiJp0CD5MI4bdc2JUO58-11" vertex="1">
          <mxGeometry x="71" y="-1" width="161" height="25" as="geometry" />
        </mxCell>
        <mxCell id="JiJp0CD5MI4bdc2JUO58-4" value="刚体变换：旋转" style="text;html=1;align=center;verticalAlign=middle;resizable=0;points=[];autosize=1;strokeColor=none;fillColor=none;fontFamily=Times New Roman;fontSize=24;" parent="JiJp0CD5MI4bdc2JUO58-11" vertex="1">
          <mxGeometry x="97" y="61" width="179" height="34" as="geometry" />
        </mxCell>
        <mxCell id="JiJp0CD5MI4bdc2JUO58-14" value="&lt;span style=&quot;font-size: 13px&quot;&gt;$$Y$$&lt;/span&gt;" style="text;html=1;align=center;verticalAlign=middle;resizable=0;points=[];autosize=1;strokeColor=none;fillColor=none;" parent="CrF_3GDUKIacaTsRTHc1-43" vertex="1">
          <mxGeometry x="94" y="119" width="49" height="19" as="geometry" />
        </mxCell>
        <mxCell id="CrF_3GDUKIacaTsRTHc1-1" value="" style="endArrow=classic;startArrow=classic;html=1;rounded=0;edgeStyle=orthogonalEdgeStyle;exitX=0;exitY=-0.211;exitDx=0;exitDy=0;exitPerimeter=0;" parent="CrF_3GDUKIacaTsRTHc1-43" edge="1">
          <mxGeometry width="50" height="50" relative="1" as="geometry">
            <mxPoint x="396" y="279.991" as="sourcePoint" />
            <mxPoint x="131" y="118" as="targetPoint" />
          </mxGeometry>
        </mxCell>
        <mxCell id="CrF_3GDUKIacaTsRTHc1-9" value="" style="endArrow=classic;html=1;rounded=0;fontFamily=Times New Roman;fontSize=14;" parent="CrF_3GDUKIacaTsRTHc1-43" edge="1">
          <mxGeometry width="50" height="50" relative="1" as="geometry">
            <mxPoint x="131" y="280" as="sourcePoint" />
            <mxPoint x="304" y="187" as="targetPoint" />
          </mxGeometry>
        </mxCell>
        <mxCell id="CrF_3GDUKIacaTsRTHc1-10" value="" style="endArrow=classic;html=1;rounded=0;fontFamily=Times New Roman;fontSize=14;" parent="CrF_3GDUKIacaTsRTHc1-43" edge="1">
          <mxGeometry width="50" height="50" relative="1" as="geometry">
            <mxPoint x="131" y="279" as="sourcePoint" />
            <mxPoint x="46" y="132" as="targetPoint" />
          </mxGeometry>
        </mxCell>
        <mxCell id="CrF_3GDUKIacaTsRTHc1-14" value="&lt;span style=&quot;font-size: 13px&quot;&gt;$$X^*$$&lt;/span&gt;" style="text;html=1;align=center;verticalAlign=middle;resizable=0;points=[];autosize=1;strokeColor=none;fillColor=none;" parent="CrF_3GDUKIacaTsRTHc1-43" vertex="1">
          <mxGeometry x="289" y="188" width="60" height="19" as="geometry" />
        </mxCell>
        <mxCell id="CrF_3GDUKIacaTsRTHc1-15" value="&lt;span style=&quot;font-size: 13px&quot;&gt;$$Y^*$$&lt;/span&gt;" style="text;html=1;align=center;verticalAlign=middle;resizable=0;points=[];autosize=1;strokeColor=none;fillColor=none;" parent="CrF_3GDUKIacaTsRTHc1-43" vertex="1">
          <mxGeometry y="131" width="60" height="19" as="geometry" />
        </mxCell>
        <mxCell id="CrF_3GDUKIacaTsRTHc1-18" value="" style="shape=waypoint;sketch=0;fillStyle=solid;size=6;pointerEvents=1;points=[];fillColor=none;resizable=0;rotatable=0;perimeter=centerPerimeter;snapToPoint=1;fontFamily=Times New Roman;fontSize=14;strokeWidth=1;" parent="CrF_3GDUKIacaTsRTHc1-43" vertex="1">
          <mxGeometry x="184" y="140" width="40" height="40" as="geometry" />
        </mxCell>
        <mxCell id="CrF_3GDUKIacaTsRTHc1-20" value="&lt;span style=&quot;font-size: 13px&quot;&gt;$$(x,y)$$&lt;/span&gt;" style="text;html=1;align=center;verticalAlign=middle;resizable=0;points=[];autosize=1;strokeColor=none;fillColor=none;" parent="CrF_3GDUKIacaTsRTHc1-43" vertex="1">
          <mxGeometry x="206" y="136" width="65" height="19" as="geometry" />
        </mxCell>
        <mxCell id="CrF_3GDUKIacaTsRTHc1-21" value="&lt;span style=&quot;font-size: 13px&quot;&gt;$$(x^*,y^*)$$&lt;/span&gt;" style="text;html=1;align=center;verticalAlign=middle;resizable=0;points=[];autosize=1;strokeColor=none;fillColor=none;" parent="CrF_3GDUKIacaTsRTHc1-43" vertex="1">
          <mxGeometry x="197" y="161" width="88" height="19" as="geometry" />
        </mxCell>
        <mxCell id="CrF_3GDUKIacaTsRTHc1-22" value="$$\theta$$" style="text;html=1;align=center;verticalAlign=middle;resizable=0;points=[];autosize=1;strokeColor=none;fillColor=none;fontSize=14;fontFamily=Times New Roman;" parent="CrF_3GDUKIacaTsRTHc1-43" vertex="1">
          <mxGeometry x="123" y="260" width="70" height="22" as="geometry" />
        </mxCell>
        <mxCell id="CrF_3GDUKIacaTsRTHc1-25" value="" style="line;strokeWidth=1;direction=south;html=1;fontFamily=Times New Roman;fontSize=14;dashed=1;" parent="CrF_3GDUKIacaTsRTHc1-43" vertex="1">
          <mxGeometry x="199" y="161" width="10" height="120" as="geometry" />
        </mxCell>
        <mxCell id="CrF_3GDUKIacaTsRTHc1-26" value="" style="line;strokeWidth=1;html=1;dashed=1;fontFamily=Times New Roman;fontSize=14;" parent="CrF_3GDUKIacaTsRTHc1-43" vertex="1">
          <mxGeometry x="130" y="156" width="76" height="10" as="geometry" />
        </mxCell>
        <mxCell id="CrF_3GDUKIacaTsRTHc1-29" value="" style="line;strokeWidth=1;html=1;dashed=1;labelBackgroundColor=#ffffff;fontFamily=Times New Roman;fontSize=14;verticalAlign=top;rotation=60;strokeColor=#FF0000;" parent="CrF_3GDUKIacaTsRTHc1-43" vertex="1">
          <mxGeometry x="187.31" y="186.88" width="68.76" height="10" as="geometry" />
        </mxCell>
        <mxCell id="CrF_3GDUKIacaTsRTHc1-30" value="&lt;span style=&quot;color: rgba(0 , 0 , 0 , 0) ; font-family: monospace ; font-size: 0px ; background-color: rgb(248 , 249 , 250)&quot;&gt;%3CmxGraphModel%3E%3Croot%3E%3CmxCell%20id%3D%220%22%2F%3E%3CmxCell%20id%3D%221%22%20parent%3D%220%22%2F%3E%3CmxCell%20id%3D%222%22%20value%3D%22%24%24%5Ctriangle%20PO_cA%20%5Cbacksim%20%5Ctriangle%20P&#39;O_cB%20%5CRightarrow%20%5Cfrac%7BZ_c%7D%7By%7D%20%3D%20%5Cfrac%7BPO_c%7D%7BP&#39;O_c%7D%3D%5Cfrac%7BAO_c%7D%7BBO_c%7D%24%24%22%20style%3D%22text%3Bhtml%3D1%3Balign%3Dcenter%3BverticalAlign%3Dmiddle%3Bresizable%3D0%3Bpoints%3D%5B%5D%3Bautosize%3D1%3BstrokeColor%3Dnone%3BfillColor%3Dnone%3BfontSize%3D18%3BfontFamily%3DTimes%20New%20Roman%3B%22%20vertex%3D%221%22%20parent%3D%221%22%3E%3CmxGeometry%20x%3D%221764%22%20y%3D%22416%22%20width%3D%22890%22%20height%3D%2227%22%20as%3D%22geometry%22%2F%3E%3C%2FmxCell%3E%3C%2Froot%3E%3C%2FmxGraphModel%3E&lt;/span&gt;" style="line;strokeWidth=1;html=1;perimeter=backbonePerimeter;points=[];outlineConnect=0;dashed=1;labelBackgroundColor=#ffffff;fontFamily=Times New Roman;fontSize=14;verticalAlign=top;strokeColor=#FF0000;rotation=-30;" parent="CrF_3GDUKIacaTsRTHc1-43" vertex="1">
          <mxGeometry x="89.59000000000015" y="186" width="124" height="10" as="geometry" />
        </mxCell>
        <mxCell id="CrF_3GDUKIacaTsRTHc1-32" value="&lt;span style=&quot;font-size: 13px&quot;&gt;$$P$$&lt;/span&gt;" style="text;html=1;align=center;verticalAlign=middle;resizable=0;points=[];autosize=1;strokeColor=none;fillColor=none;" parent="CrF_3GDUKIacaTsRTHc1-43" vertex="1">
          <mxGeometry x="177" y="138" width="49" height="19" as="geometry" />
        </mxCell>
        <mxCell id="CrF_3GDUKIacaTsRTHc1-33" value="&lt;span style=&quot;font-size: 13px&quot;&gt;$$A$$&lt;/span&gt;" style="text;html=1;align=center;verticalAlign=middle;resizable=0;points=[];autosize=1;strokeColor=none;fillColor=none;" parent="CrF_3GDUKIacaTsRTHc1-43" vertex="1">
          <mxGeometry x="161" y="251" width="49" height="19" as="geometry" />
        </mxCell>
        <mxCell id="CrF_3GDUKIacaTsRTHc1-34" value="&lt;span style=&quot;font-size: 13px&quot;&gt;$$B$$&lt;/span&gt;" style="text;html=1;align=center;verticalAlign=middle;resizable=0;points=[];autosize=1;strokeColor=none;fillColor=none;" parent="CrF_3GDUKIacaTsRTHc1-43" vertex="1">
          <mxGeometry x="219" y="200" width="49" height="19" as="geometry" />
        </mxCell>
        <mxCell id="CrF_3GDUKIacaTsRTHc1-36" value="&lt;span style=&quot;font-size: 13px&quot;&gt;$$D$$&lt;/span&gt;" style="text;html=1;align=center;verticalAlign=middle;resizable=0;points=[];autosize=1;strokeColor=none;fillColor=none;" parent="CrF_3GDUKIacaTsRTHc1-43" vertex="1">
          <mxGeometry x="59" y="218" width="49" height="19" as="geometry" />
        </mxCell>
        <mxCell id="CrF_3GDUKIacaTsRTHc1-37" value="&lt;span style=&quot;font-size: 13px&quot;&gt;$$F$$&lt;/span&gt;" style="text;html=1;align=center;verticalAlign=middle;resizable=0;points=[];autosize=1;strokeColor=none;fillColor=none;" parent="CrF_3GDUKIacaTsRTHc1-43" vertex="1">
          <mxGeometry x="118" y="140" width="48" height="19" as="geometry" />
        </mxCell>
        <mxCell id="CrF_3GDUKIacaTsRTHc1-38" value="" style="shape=waypoint;sketch=0;fillStyle=solid;size=6;pointerEvents=1;points=[];fillColor=none;resizable=0;rotatable=0;perimeter=centerPerimeter;snapToPoint=1;dashed=1;labelBackgroundColor=#ffffff;fontFamily=Times New Roman;fontSize=14;strokeColor=#000000;strokeWidth=1;verticalAlign=top;html=1;" parent="CrF_3GDUKIacaTsRTHc1-43" vertex="1">
          <mxGeometry x="111" y="183" width="40" height="40" as="geometry" />
        </mxCell>
        <mxCell id="CrF_3GDUKIacaTsRTHc1-39" value="&lt;span style=&quot;font-size: 13px&quot;&gt;$$E$$&lt;/span&gt;" style="text;html=1;align=center;verticalAlign=middle;resizable=0;points=[];autosize=1;strokeColor=none;fillColor=none;" parent="CrF_3GDUKIacaTsRTHc1-43" vertex="1">
          <mxGeometry x="119" y="197" width="49" height="19" as="geometry" />
        </mxCell>
        <mxCell id="CrF_3GDUKIacaTsRTHc1-56" value="&lt;span style=&quot;color: rgba(0 , 0 , 0 , 0) ; font-family: monospace ; font-size: 0px ; background-color: rgb(248 , 249 , 250)&quot;&gt;%3CmxGraphModel%3E%3Croot%3E%3CmxCell%20id%3D%220%22%2F%3E%3CmxCell%20id%3D%221%22%20parent%3D%220%22%2F%3E%3CmxCell%20id%3D%222%22%20value%3D%22%24%24%5Ctriangle%20PO_cA%20%5Cbacksim%20%5Ctriangle%20P&#39;O_cB%20%5CRightarrow%20%5Cfrac%7BZ_c%7D%7By%7D%20%3D%20%5Cfrac%7BPO_c%7D%7BP&#39;O_c%7D%3D%5Cfrac%7BAO_c%7D%7BBO_c%7D%24%24%22%20style%3D%22text%3Bhtml%3D1%3Balign%3Dcenter%3BverticalAlign%3Dmiddle%3Bresizable%3D0%3Bpoints%3D%5B%5D%3Bautosize%3D1%3BstrokeColor%3Dnone%3BfillColor%3Dnone%3BfontSize%3D18%3BfontFamily%3DTimes%20New%20Roman%3B%22%20vertex%3D%221%22%20parent%3D%221%22%3E%3CmxGeometry%20x%3D%221764%22%20y%3D%22416%22%20width%3D%22890%22%20height%3D%2227%22%20as%3D%22geometry%22%2F%3E%3C%2FmxCell%3E%3C%2Froot%3E%3C%2FmxGraphModel%3E&lt;/span&gt;" style="line;strokeWidth=1;html=1;perimeter=backbonePerimeter;points=[];outlineConnect=0;dashed=1;labelBackgroundColor=#ffffff;fontFamily=Times New Roman;fontSize=14;verticalAlign=top;strokeColor=#FF0000;rotation=-30;" parent="CrF_3GDUKIacaTsRTHc1-43" vertex="1">
          <mxGeometry x="75.22" y="169.75" width="61" height="10" as="geometry" />
        </mxCell>
        <mxCell id="CrF_3GDUKIacaTsRTHc1-57" value="" style="line;strokeWidth=1;html=1;dashed=1;labelBackgroundColor=#ffffff;fontFamily=Times New Roman;fontSize=14;verticalAlign=top;rotation=60;strokeColor=#FF0000;" parent="CrF_3GDUKIacaTsRTHc1-43" vertex="1">
          <mxGeometry x="105.44" y="200.83" width="103" height="10" as="geometry" />
        </mxCell>
        <mxCell id="CrF_3GDUKIacaTsRTHc1-66" value="&lt;font color=&quot;#ff0000&quot;&gt;逆时针旋转（Z）&lt;/font&gt;" style="text;html=1;align=center;verticalAlign=middle;resizable=0;points=[];autosize=1;strokeColor=none;fillColor=none;fontSize=14;fontFamily=Times New Roman;fontColor=#000000;" parent="CrF_3GDUKIacaTsRTHc1-43" vertex="1">
          <mxGeometry x="370" y="159" width="118" height="22" as="geometry" />
        </mxCell>
        <mxCell id="CrF_3GDUKIacaTsRTHc1-79" value="" style="group" parent="CrF_3GDUKIacaTsRTHc1-43" vertex="1" connectable="0">
          <mxGeometry x="15" y="272" width="423" height="120" as="geometry" />
        </mxCell>
        <mxCell id="CrF_3GDUKIacaTsRTHc1-11" value="&lt;span style=&quot;font-size: 13px&quot;&gt;$$X$$&lt;/span&gt;" style="text;html=1;align=center;verticalAlign=middle;resizable=0;points=[];autosize=1;strokeColor=none;fillColor=none;" parent="CrF_3GDUKIacaTsRTHc1-79" vertex="1">
          <mxGeometry x="373" width="49" height="19" as="geometry" />
        </mxCell>
        <mxCell id="CrF_3GDUKIacaTsRTHc1-35" value="&lt;span style=&quot;font-size: 13px&quot;&gt;$$C$$&lt;/span&gt;" style="text;html=1;align=center;verticalAlign=middle;resizable=0;points=[];autosize=1;strokeColor=none;fillColor=none;" parent="CrF_3GDUKIacaTsRTHc1-79" vertex="1">
          <mxGeometry x="161" y="12" width="49" height="19" as="geometry" />
        </mxCell>
        <mxCell id="CrF_3GDUKIacaTsRTHc1-40" value="&lt;span style=&quot;font-size: 13px&quot;&gt;$$O$$&lt;/span&gt;" style="text;html=1;align=center;verticalAlign=middle;resizable=0;points=[];autosize=1;strokeColor=none;fillColor=none;" parent="CrF_3GDUKIacaTsRTHc1-79" vertex="1">
          <mxGeometry x="93" y="12" width="50" height="19" as="geometry" />
        </mxCell>
        <mxCell id="CrF_3GDUKIacaTsRTHc1-48" value="&lt;span style=&quot;font-size: 13px&quot;&gt;$$G$$&lt;/span&gt;" style="text;html=1;align=center;verticalAlign=middle;resizable=0;points=[];autosize=1;strokeColor=none;fillColor=none;" parent="CrF_3GDUKIacaTsRTHc1-79" vertex="1">
          <mxGeometry x="232" y="11" width="50" height="19" as="geometry" />
        </mxCell>
        <mxCell id="CrF_3GDUKIacaTsRTHc1-58" value="$$\triangle AOF\quad\Rightarrow\quad OA=y\cdot \sin \theta\quad&lt;br&gt;&amp;nbsp;; \quad AF =x\cdot\cos\theta$$&amp;nbsp;" style="text;html=1;align=center;verticalAlign=middle;resizable=0;points=[];autosize=1;strokeColor=none;fillColor=none;fontSize=14;fontFamily=Times New Roman;" parent="CrF_3GDUKIacaTsRTHc1-79" vertex="1">
          <mxGeometry y="56" width="388" height="39" as="geometry" />
        </mxCell>
        <mxCell id="CrF_3GDUKIacaTsRTHc1-60" value="$$\triangle FEP\quad\Rightarrow\quad EP=AB = y\cdot \cos \theta\quad&lt;br&gt;&amp;nbsp;; \quad&amp;nbsp;FE=x\cdot\sin\theta$$" style="text;html=1;align=center;verticalAlign=middle;resizable=0;points=[];autosize=1;strokeColor=none;fillColor=none;fontSize=14;fontFamily=Times New Roman;" parent="CrF_3GDUKIacaTsRTHc1-79" vertex="1">
          <mxGeometry x="5" y="81" width="418" height="39" as="geometry" />
        </mxCell>
        <mxCell id="CrF_3GDUKIacaTsRTHc1-62" value="" style="shape=curlyBracket;whiteSpace=wrap;html=1;rounded=1;labelBackgroundColor=#ffffff;fontFamily=Times New Roman;fontSize=14;strokeColor=#000000;strokeWidth=1;verticalAlign=top;fontColor=#000000;" parent="CrF_3GDUKIacaTsRTHc1-69" vertex="1">
          <mxGeometry x="88" y="406" width="20" height="110" as="geometry" />
        </mxCell>
        <mxCell id="CrF_3GDUKIacaTsRTHc1-64" value="$$x^* = x\cdot\cos\theta + y\cdot\sin\theta $$" style="text;html=1;align=center;verticalAlign=middle;resizable=0;points=[];autosize=1;strokeColor=none;fillColor=none;fontSize=14;fontFamily=Times New Roman;fontColor=#000000;" parent="CrF_3GDUKIacaTsRTHc1-69" vertex="1">
          <mxGeometry x="57" y="405" width="268" height="22" as="geometry" />
        </mxCell>
        <mxCell id="CrF_3GDUKIacaTsRTHc1-65" value="$$y^* = y\cdot\cos\theta - x\cdot\sin\theta $$" style="text;html=1;align=center;verticalAlign=middle;resizable=0;points=[];autosize=1;strokeColor=none;fillColor=none;fontSize=14;fontFamily=Times New Roman;fontColor=#000000;" parent="CrF_3GDUKIacaTsRTHc1-69" vertex="1">
          <mxGeometry x="60" y="448" width="265" height="22" as="geometry" />
        </mxCell>
        <mxCell id="CrF_3GDUKIacaTsRTHc1-67" value="$$z^* = z $$" style="text;html=1;align=center;verticalAlign=middle;resizable=0;points=[];autosize=1;strokeColor=none;fillColor=none;fontSize=14;fontFamily=Times New Roman;fontColor=#000000;" parent="CrF_3GDUKIacaTsRTHc1-69" vertex="1">
          <mxGeometry x="100" y="491" width="83" height="22" as="geometry" />
        </mxCell>
        <mxCell id="CrF_3GDUKIacaTsRTHc1-71" value="$$\Rightarrow \quad\begin{bmatrix}x^*\\y^*\\z^*\end{bmatrix}&lt;br&gt;=\begin{bmatrix}\cos\theta&amp;amp;\sin\theta&amp;amp;0\\&lt;br&gt;-\sin\theta&amp;amp;\cos\theta&amp;amp;0\\0&amp;amp;0&amp;amp;1\end{bmatrix}&lt;br&gt;\begin{bmatrix}x\\y\\z\end{bmatrix}&lt;br&gt;$$" style="text;html=1;align=center;verticalAlign=middle;resizable=0;points=[];autosize=1;strokeColor=none;fillColor=none;fontSize=14;fontFamily=Times New Roman;fontColor=#000000;" parent="CrF_3GDUKIacaTsRTHc1-69" vertex="1">
          <mxGeometry x="219" y="410" width="377" height="90" as="geometry" />
        </mxCell>
        <mxCell id="CrF_3GDUKIacaTsRTHc1-95" value="" style="group" parent="1" vertex="1" connectable="0">
          <mxGeometry x="2513" y="23" width="358" height="183" as="geometry" />
        </mxCell>
        <mxCell id="CrF_3GDUKIacaTsRTHc1-92" value="" style="group" parent="CrF_3GDUKIacaTsRTHc1-95" vertex="1" connectable="0">
          <mxGeometry width="260" height="176" as="geometry" />
        </mxCell>
        <mxCell id="CrF_3GDUKIacaTsRTHc1-85" value="&lt;font style=&quot;font-size: 30px&quot;&gt;刚体变换：平移&lt;/font&gt;" style="text;html=1;align=center;verticalAlign=middle;resizable=0;points=[];autosize=1;strokeColor=none;fillColor=none;fontFamily=Times New Roman;fontSize=24;" parent="CrF_3GDUKIacaTsRTHc1-92" vertex="1">
          <mxGeometry x="-21" y="-1" width="221" height="37" as="geometry" />
        </mxCell>
        <mxCell id="CrF_3GDUKIacaTsRTHc1-91" value="" style="group" parent="CrF_3GDUKIacaTsRTHc1-92" vertex="1" connectable="0">
          <mxGeometry x="31" y="52" width="114" height="108" as="geometry" />
        </mxCell>
        <mxCell id="CrF_3GDUKIacaTsRTHc1-86" value="" style="shape=curlyBracket;whiteSpace=wrap;html=1;rounded=1;labelBackgroundColor=none;fontFamily=Times New Roman;fontSize=14;fontColor=#FF0000;strokeColor=#000000;strokeWidth=1;verticalAlign=top;" parent="CrF_3GDUKIacaTsRTHc1-91" vertex="1">
          <mxGeometry y="11" width="20" height="90" as="geometry" />
        </mxCell>
        <mxCell id="CrF_3GDUKIacaTsRTHc1-88" value="&lt;font color=&quot;#000000&quot;&gt;$$y^* = y+b$$&lt;/font&gt;" style="text;html=1;align=center;verticalAlign=middle;resizable=0;points=[];autosize=1;strokeColor=none;fillColor=none;fontSize=14;fontFamily=Times New Roman;fontColor=#FF0000;" parent="CrF_3GDUKIacaTsRTHc1-91" vertex="1">
          <mxGeometry x="7" y="39" width="96" height="22" as="geometry" />
        </mxCell>
        <mxCell id="CrF_3GDUKIacaTsRTHc1-89" value="&lt;font color=&quot;#000000&quot;&gt;$$z^* = z+c$$&lt;/font&gt;" style="text;html=1;align=center;verticalAlign=middle;resizable=0;points=[];autosize=1;strokeColor=none;fillColor=none;fontSize=14;fontFamily=Times New Roman;fontColor=#FF0000;" parent="CrF_3GDUKIacaTsRTHc1-91" vertex="1">
          <mxGeometry x="7" y="72" width="94" height="22" as="geometry" />
        </mxCell>
        <mxCell id="CrF_3GDUKIacaTsRTHc1-87" value="&lt;font color=&quot;#000000&quot;&gt;$$x^* = x+a$$&lt;/font&gt;" style="text;html=1;align=center;verticalAlign=middle;resizable=0;points=[];autosize=1;strokeColor=none;fillColor=none;fontSize=14;fontFamily=Times New Roman;fontColor=#FF0000;" parent="CrF_3GDUKIacaTsRTHc1-91" vertex="1">
          <mxGeometry x="7" y="11" width="96" height="22" as="geometry" />
        </mxCell>
        <mxCell id="CrF_3GDUKIacaTsRTHc1-93" value="&lt;font color=&quot;#000000&quot;&gt;$$\Rightarrow&lt;br&gt;\quad\begin{bmatrix}&lt;br&gt;x^*\\y^*\\z^*\\1\end{bmatrix}&lt;br&gt;=\begin{bmatrix}1&amp;amp;0&amp;amp;0&amp;amp;a\\&lt;br&gt;0&amp;amp;1&amp;amp;0&amp;amp;b\\&lt;br&gt;0&amp;amp;0&amp;amp;1&amp;amp;c\\&lt;br&gt;0&amp;amp;0&amp;amp;0&amp;amp;1\end{bmatrix}&lt;br&gt;\begin{bmatrix}x\\y\\z\\1\end{bmatrix}&lt;br&gt;$$&lt;/font&gt;" style="text;html=1;align=center;verticalAlign=middle;resizable=0;points=[];autosize=1;strokeColor=none;fillColor=none;fontSize=14;fontFamily=Times New Roman;fontColor=#FF0000;" parent="CrF_3GDUKIacaTsRTHc1-95" vertex="1">
          <mxGeometry x="123" y="25" width="235" height="158" as="geometry" />
        </mxCell>
        <mxCell id="CrF_3GDUKIacaTsRTHc1-97" value="" style="shape=curlyBracket;whiteSpace=wrap;html=1;rounded=1;labelBackgroundColor=none;fontFamily=Times New Roman;fontSize=14;fontColor=#FF0000;strokeColor=#000000;strokeWidth=1;verticalAlign=top;" parent="1" vertex="1">
          <mxGeometry x="2542" y="259" width="20" height="215" as="geometry" />
        </mxCell>
        <mxCell id="CrF_3GDUKIacaTsRTHc1-98" value="$$\begin{bmatrix}x^*\\y^*\\z^*\end{bmatrix}&lt;br&gt;=R_1R_2R_3&lt;br&gt;\begin{bmatrix}x\\y\\z\end{bmatrix}&lt;br&gt;$$" style="text;html=1;align=center;verticalAlign=middle;resizable=0;points=[];autosize=1;strokeColor=none;fillColor=none;fontSize=14;fontFamily=Times New Roman;fontColor=#000000;" parent="1" vertex="1">
          <mxGeometry x="2493" y="270" width="275" height="73" as="geometry" />
        </mxCell>
        <mxCell id="CrF_3GDUKIacaTsRTHc1-100" value="&lt;font color=&quot;#000000&quot;&gt;$$\begin{bmatrix}&lt;br&gt;x^*\\y^*\\z^*\\1\end{bmatrix}&lt;br&gt;=\begin{bmatrix}1&amp;amp;0&amp;amp;0&amp;amp;a\\&lt;br&gt;0&amp;amp;1&amp;amp;0&amp;amp;b\\&lt;br&gt;0&amp;amp;0&amp;amp;1&amp;amp;c\\&lt;br&gt;0&amp;amp;0&amp;amp;0&amp;amp;1\end{bmatrix}&lt;br&gt;\begin{bmatrix}x\\y\\z\\1\end{bmatrix}&lt;br&gt;$$&lt;/font&gt;" style="text;html=1;align=center;verticalAlign=middle;resizable=0;points=[];autosize=1;strokeColor=none;fillColor=none;fontSize=14;fontFamily=Times New Roman;fontColor=#FF0000;" parent="1" vertex="1">
          <mxGeometry x="2537" y="349" width="235" height="141" as="geometry" />
        </mxCell>
        <mxCell id="9LN8PvBKGNUaroZWilC9-1" value="&lt;font face=&quot;Times New Roman&quot; style=&quot;font-size: 30px&quot;&gt;相机畸变和参数标定&lt;/font&gt;" style="text;html=1;align=center;verticalAlign=middle;resizable=0;points=[];autosize=1;strokeColor=none;fillColor=none;" parent="1" vertex="1">
          <mxGeometry x="9" y="1216" width="281" height="25" as="geometry" />
        </mxCell>
        <mxCell id="9LN8PvBKGNUaroZWilC9-2" value="&lt;font face=&quot;Times New Roman&quot; style=&quot;font-size: 24px&quot;&gt;distortion&lt;/font&gt;" style="text;html=1;align=center;verticalAlign=middle;resizable=0;points=[];autosize=1;strokeColor=none;fillColor=none;" parent="1" vertex="1">
          <mxGeometry x="48" y="1360" width="103" height="23" as="geometry" />
        </mxCell>
        <mxCell id="9LN8PvBKGNUaroZWilC9-3" value="" style="shape=curlyBracket;whiteSpace=wrap;html=1;rounded=1;" parent="1" vertex="1">
          <mxGeometry x="154" y="1315" width="20" height="120" as="geometry" />
        </mxCell>
        <mxCell id="9LN8PvBKGNUaroZWilC9-4" value="&lt;font face=&quot;Times New Roman&quot; style=&quot;font-size: 24px&quot;&gt;Radial Distortion&amp;nbsp; 径向畸变&lt;/font&gt;" style="text;html=1;align=center;verticalAlign=middle;resizable=0;points=[];autosize=1;strokeColor=none;fillColor=none;" parent="1" vertex="1">
          <mxGeometry x="167" y="1327" width="285" height="23" as="geometry" />
        </mxCell>
        <mxCell id="9LN8PvBKGNUaroZWilC9-6" value="&lt;font face=&quot;Times New Roman&quot; style=&quot;font-size: 24px&quot;&gt;Tangential Distortion 切向畸变&lt;/font&gt;" style="text;html=1;align=center;verticalAlign=middle;resizable=0;points=[];autosize=1;strokeColor=none;fillColor=none;" parent="1" vertex="1">
          <mxGeometry x="167" y="1395" width="317" height="23" as="geometry" />
        </mxCell>
        <mxCell id="9LN8PvBKGNUaroZWilC9-30" value="" style="group" parent="1" vertex="1" connectable="0">
          <mxGeometry x="35" y="1464" width="768" height="244" as="geometry" />
        </mxCell>
        <mxCell id="9LN8PvBKGNUaroZWilC9-20" value="&lt;span style=&quot;color: rgb(0 , 0 , 0) ; font-family: &amp;#34;times new roman&amp;#34; ; font-size: 24px ; font-style: normal ; font-weight: 400 ; letter-spacing: normal ; text-align: center ; text-indent: 0px ; text-transform: none ; word-spacing: 0px ; display: inline ; float: none&quot;&gt;&lt;span style=&quot;white-space: pre&quot;&gt;        &lt;/span&gt;径向畸变是镜头存在径向曲率不同的的现象造成的。其数学模型可以用主点周围的泰勒级数展开式的前几项进行描述。&lt;br&gt;&lt;br&gt;&lt;/span&gt;" style="text;whiteSpace=wrap;html=1;" parent="9LN8PvBKGNUaroZWilC9-30" vertex="1">
          <mxGeometry width="750" height="69" as="geometry" />
        </mxCell>
        <mxCell id="9LN8PvBKGNUaroZWilC9-21" value="" style="shape=curlyBracket;whiteSpace=wrap;html=1;rounded=1;strokeColor=#000000;strokeWidth=1;" parent="9LN8PvBKGNUaroZWilC9-30" vertex="1">
          <mxGeometry x="94" y="124" width="20" height="120" as="geometry" />
        </mxCell>
        <mxCell id="9LN8PvBKGNUaroZWilC9-25" value="&lt;span style=&quot;font-family: &amp;#34;times new roman&amp;#34; ; font-size: 24px&quot;&gt;$$x_{rad} = x(1+k_1r^2+k_2r^4+k_3r^6)$$&lt;/span&gt;" style="text;html=1;align=center;verticalAlign=middle;resizable=0;points=[];autosize=1;strokeColor=none;fillColor=none;" parent="9LN8PvBKGNUaroZWilC9-30" vertex="1">
          <mxGeometry x="83" y="131" width="445" height="23" as="geometry" />
        </mxCell>
        <mxCell id="9LN8PvBKGNUaroZWilC9-26" value="&lt;span style=&quot;font-family: &amp;#34;times new roman&amp;#34; ; font-size: 24px&quot;&gt;$$y_{rad} = y(1+k_1r^2+k_2r^4+k_3r^6)$$&lt;/span&gt;" style="text;html=1;align=center;verticalAlign=middle;resizable=0;points=[];autosize=1;strokeColor=none;fillColor=none;" parent="9LN8PvBKGNUaroZWilC9-30" vertex="1">
          <mxGeometry x="85" y="201" width="445" height="23" as="geometry" />
        </mxCell>
        <mxCell id="9LN8PvBKGNUaroZWilC9-31" value="&lt;font face=&quot;Times New Roman&quot; style=&quot;font-size: 18px&quot;&gt;式中&lt;/font&gt;" style="text;html=1;align=center;verticalAlign=middle;resizable=0;points=[];autosize=1;strokeColor=none;fillColor=none;" parent="9LN8PvBKGNUaroZWilC9-30" vertex="1">
          <mxGeometry x="529" y="163" width="47" height="21" as="geometry" />
        </mxCell>
        <mxCell id="9LN8PvBKGNUaroZWilC9-34" value="&lt;font face=&quot;Times New Roman&quot;&gt;&lt;span style=&quot;font-size: 18px&quot;&gt;$$r^2=x^2+y^2$$&lt;/span&gt;&lt;/font&gt;" style="text;html=1;align=center;verticalAlign=middle;resizable=0;points=[];autosize=1;strokeColor=none;fillColor=none;" parent="9LN8PvBKGNUaroZWilC9-30" vertex="1">
          <mxGeometry x="564" y="164" width="144" height="21" as="geometry" />
        </mxCell>
        <mxCell id="9LN8PvBKGNUaroZWilC9-35" value="&lt;span style=&quot;font-family: &amp;#34;times new roman&amp;#34; ; font-size: 24px&quot;&gt;&lt;br&gt;&lt;/span&gt;" style="text;html=1;align=center;verticalAlign=middle;resizable=0;points=[];autosize=1;strokeColor=none;fillColor=none;" parent="9LN8PvBKGNUaroZWilC9-30" vertex="1">
          <mxGeometry x="626" y="168" width="11" height="23" as="geometry" />
        </mxCell>
        <mxCell id="II46ik6HE9KKDSEKJmV2-1" value="&lt;font style=&quot;font-size: 18px&quot;&gt;$$x_{rad}是修正后的坐标$$&lt;/font&gt;" style="text;html=1;align=center;verticalAlign=middle;resizable=0;points=[];autosize=1;strokeColor=none;fillColor=none;" parent="9LN8PvBKGNUaroZWilC9-30" vertex="1">
          <mxGeometry x="501" y="199" width="234" height="21" as="geometry" />
        </mxCell>
        <mxCell id="II46ik6HE9KKDSEKJmV2-3" value="" style="group" parent="1" vertex="1" connectable="0">
          <mxGeometry x="21" y="1749" width="768" height="244" as="geometry" />
        </mxCell>
        <mxCell id="II46ik6HE9KKDSEKJmV2-4" value="&lt;span style=&quot;color: rgb(0 , 0 , 0) ; font-family: &amp;#34;times new roman&amp;#34; ; font-size: 24px ; font-style: normal ; font-weight: 400 ; letter-spacing: normal ; text-align: center ; text-indent: 0px ; text-transform: none ; word-spacing: 0px ; display: inline ; float: none&quot;&gt;&lt;span style=&quot;white-space: pre&quot;&gt; 切向&lt;/span&gt;畸变是透镜组装时产生的偏差&lt;br&gt;&lt;br&gt;&lt;/span&gt;" style="text;whiteSpace=wrap;html=1;" parent="II46ik6HE9KKDSEKJmV2-3" vertex="1">
          <mxGeometry x="34" y="32" width="369" height="39" as="geometry" />
        </mxCell>
        <mxCell id="II46ik6HE9KKDSEKJmV2-5" value="" style="shape=curlyBracket;whiteSpace=wrap;html=1;rounded=1;strokeColor=#000000;strokeWidth=1;" parent="II46ik6HE9KKDSEKJmV2-3" vertex="1">
          <mxGeometry x="94" y="124" width="20" height="120" as="geometry" />
        </mxCell>
        <mxCell id="II46ik6HE9KKDSEKJmV2-6" value="&lt;span style=&quot;font-family: &amp;#34;times new roman&amp;#34; ; font-size: 24px&quot;&gt;$$x_{tan} = x+2p_1xy+p_2(r^2+2x^2)$$&lt;/span&gt;" style="text;html=1;align=center;verticalAlign=middle;resizable=0;points=[];autosize=1;strokeColor=none;fillColor=none;" parent="II46ik6HE9KKDSEKJmV2-3" vertex="1">
          <mxGeometry x="99" y="131" width="416" height="23" as="geometry" />
        </mxCell>
        <mxCell id="II46ik6HE9KKDSEKJmV2-8" value="&lt;font face=&quot;Times New Roman&quot; style=&quot;font-size: 18px&quot;&gt;式中&lt;/font&gt;" style="text;html=1;align=center;verticalAlign=middle;resizable=0;points=[];autosize=1;strokeColor=none;fillColor=none;" parent="II46ik6HE9KKDSEKJmV2-3" vertex="1">
          <mxGeometry x="529" y="163" width="47" height="21" as="geometry" />
        </mxCell>
        <mxCell id="II46ik6HE9KKDSEKJmV2-9" value="&lt;font face=&quot;Times New Roman&quot;&gt;&lt;span style=&quot;font-size: 18px&quot;&gt;$$r^2=x^2+y^2$$&lt;/span&gt;&lt;/font&gt;" style="text;html=1;align=center;verticalAlign=middle;resizable=0;points=[];autosize=1;strokeColor=none;fillColor=none;" parent="II46ik6HE9KKDSEKJmV2-3" vertex="1">
          <mxGeometry x="564" y="164" width="144" height="21" as="geometry" />
        </mxCell>
        <mxCell id="II46ik6HE9KKDSEKJmV2-10" value="&lt;span style=&quot;font-family: &amp;#34;times new roman&amp;#34; ; font-size: 24px&quot;&gt;&lt;br&gt;&lt;/span&gt;" style="text;html=1;align=center;verticalAlign=middle;resizable=0;points=[];autosize=1;strokeColor=none;fillColor=none;" parent="II46ik6HE9KKDSEKJmV2-3" vertex="1">
          <mxGeometry x="626" y="168" width="11" height="23" as="geometry" />
        </mxCell>
        <mxCell id="II46ik6HE9KKDSEKJmV2-11" value="&lt;font style=&quot;font-size: 18px&quot;&gt;$$x_{rad}是修正后的坐标$$&lt;/font&gt;" style="text;html=1;align=center;verticalAlign=middle;resizable=0;points=[];autosize=1;strokeColor=none;fillColor=none;" parent="II46ik6HE9KKDSEKJmV2-3" vertex="1">
          <mxGeometry x="501" y="199" width="234" height="21" as="geometry" />
        </mxCell>
        <mxCell id="II46ik6HE9KKDSEKJmV2-13" value="&lt;span style=&quot;font-family: &amp;#34;times new roman&amp;#34; ; font-size: 24px&quot;&gt;$$y_{tan} = y+2p_2xy+p_1(r^2+2x^2)$$&lt;/span&gt;" style="text;html=1;align=center;verticalAlign=middle;resizable=0;points=[];autosize=1;strokeColor=none;fillColor=none;" parent="II46ik6HE9KKDSEKJmV2-3" vertex="1">
          <mxGeometry x="100" y="201" width="416" height="23" as="geometry" />
        </mxCell>
        <mxCell id="yq75OJrV7R4BaYgS8IJ7-5" value="$$\begin{bmatrix} u \\ v \\ 1 \end{bmatrix} =\frac{1}{Z_c}&lt;br&gt;\begin{bmatrix}f_x &amp;amp; 0 &amp;amp; u_0 &amp;amp;0\\ 0 &amp;amp;&lt;br&gt;f_y&amp;amp; v_0&amp;amp;0 \\ 0 &amp;amp; 0 &amp;amp; 1 &amp;amp;0&lt;br&gt;&amp;nbsp;\end{bmatrix}&lt;br&gt;\begin{bmatrix} R &amp;amp;T\\&lt;br&gt;&amp;nbsp;\overrightarrow{0} &amp;amp; 1&amp;nbsp;&lt;br&gt;&amp;nbsp;\end{bmatrix}&lt;br style=&quot;font-size: 14px&quot;&gt;\begin{bmatrix} X_c\\Y_c\\ Z_c \\1 \end{bmatrix}$$" style="text;html=1;align=center;verticalAlign=middle;resizable=0;points=[];autosize=1;strokeColor=none;fillColor=none;fontSize=18;fontFamily=Times New Roman;" parent="1" vertex="1">
          <mxGeometry x="145.9954412316938" y="2124" width="445" height="181" as="geometry" />
        </mxCell>
        <mxCell id="yq75OJrV7R4BaYgS8IJ7-7" value="&lt;font face=&quot;Times New Roman&quot; style=&quot;font-size: 24px&quot;&gt;然后带入坐标系转换公式进行标定&lt;/font&gt;" style="text;html=1;align=center;verticalAlign=middle;resizable=0;points=[];autosize=1;strokeColor=none;fillColor=none;" parent="1" vertex="1">
          <mxGeometry x="43" y="2084" width="371" height="23" as="geometry" />
        </mxCell>
        <mxCell id="yq75OJrV7R4BaYgS8IJ7-9" value="&lt;font face=&quot;Times New Roman&quot; style=&quot;font-size: 30px&quot;&gt;透视变换&lt;/font&gt;" style="text;html=1;align=center;verticalAlign=middle;resizable=0;points=[];autosize=1;strokeColor=none;fillColor=none;" parent="1" vertex="1">
          <mxGeometry x="1680" y="1221" width="131" height="25" as="geometry" />
        </mxCell>
        <mxCell id="yq75OJrV7R4BaYgS8IJ7-11" value="&lt;font face=&quot;Times New Roman&quot; style=&quot;font-size: 30px&quot;&gt;比例变换&lt;/font&gt;" style="text;html=1;align=center;verticalAlign=middle;resizable=0;points=[];autosize=1;strokeColor=none;fillColor=none;" parent="1" vertex="1">
          <mxGeometry x="846" y="1221" width="131" height="25" as="geometry" />
        </mxCell>
        <mxCell id="SbSONll9U3j8K_KUv4hK-2" value="&lt;font face=&quot;Times New Roman&quot; style=&quot;font-size: 30px&quot;&gt;仿射变换&lt;/font&gt;" style="text;html=1;align=center;verticalAlign=middle;resizable=0;points=[];autosize=1;strokeColor=none;fillColor=none;" parent="1" vertex="1">
          <mxGeometry x="854" y="1795" width="131" height="25" as="geometry" />
        </mxCell>
        <mxCell id="SbSONll9U3j8K_KUv4hK-5" value="&lt;font face=&quot;Times New Roman&quot;&gt;&lt;span style=&quot;font-size: 24px&quot;&gt;$$将平面上的点P(x,y)的x坐标和y坐标分别乘比例系数S_x,S_y,得到P&#39;$$&lt;/span&gt;&lt;/font&gt;" style="text;html=1;align=center;verticalAlign=middle;resizable=0;points=[];autosize=1;strokeColor=none;fillColor=none;" parent="1" vertex="1">
          <mxGeometry x="849" y="1286" width="749" height="23" as="geometry" />
        </mxCell>
        <mxCell id="SbSONll9U3j8K_KUv4hK-6" value="&lt;font style=&quot;font-size: 24px&quot; face=&quot;Times New Roman&quot;&gt;$$\Rightarrow (x&#39;,y&#39;)=(S_xx,S_yy)$$&lt;/font&gt;" style="text;html=1;align=center;verticalAlign=middle;resizable=0;points=[];autosize=1;strokeColor=none;fillColor=none;" parent="1" vertex="1">
          <mxGeometry x="852" y="1393" width="370" height="23" as="geometry" />
        </mxCell>
        <mxCell id="SbSONll9U3j8K_KUv4hK-8" value="&lt;font style=&quot;font-size: 24px&quot; face=&quot;Times New Roman&quot;&gt;$$\Rightarrow \begin{bmatrix}x&#39;\\y&#39;\end{bmatrix}=\begin{bmatrix}&lt;br&gt;S_x&amp;amp;0\\0&amp;amp;S_y\end{bmatrix}\begin{bmatrix}x\\y\end{bmatrix}$$&lt;/font&gt;" style="text;html=1;align=center;verticalAlign=middle;resizable=0;points=[];autosize=1;strokeColor=none;fillColor=none;" parent="1" vertex="1">
          <mxGeometry x="704" y="1514" width="671" height="41" as="geometry" />
        </mxCell>
        <mxCell id="SbSONll9U3j8K_KUv4hK-12" value="&lt;span style=&quot;color: rgb(0 , 0 , 0) ; font-family: &amp;#34;times new roman&amp;#34; ; font-size: 24px ; font-style: normal ; font-weight: 400 ; letter-spacing: normal ; text-align: center ; text-indent: 0px ; text-transform: none ; word-spacing: 0px ; display: inline ; float: none&quot;&gt;&lt;span style=&quot;white-space: pre&quot;&gt;        比例变换将在图像的x和y方向分别放大或者缩小。当比例系数相同时，&lt;br&gt;&lt;/span&gt;称为全比例变换，图像将在x-y方向上被均匀的放大或者缩小。原点不变，平型关系和倍数关系都不变。&lt;br&gt;&lt;br&gt;&lt;/span&gt;" style="text;whiteSpace=wrap;html=1;" parent="1" vertex="1">
          <mxGeometry x="852" y="1631" width="750" height="89" as="geometry" />
        </mxCell>
        <mxCell id="SbSONll9U3j8K_KUv4hK-13" value="&lt;span style=&quot;color: rgb(0 , 0 , 0) ; font-family: &amp;#34;times new roman&amp;#34; ; font-size: 24px ; font-style: normal ; font-weight: 400 ; letter-spacing: normal ; text-align: center ; text-indent: 0px ; text-transform: none ; word-spacing: 0px ; display: inline ; float: none&quot;&gt;&lt;span style=&quot;white-space: pre&quot;&gt;        仿射变换相当于在比例变换的基础上可以改变原图像的原点坐标。&lt;br&gt;&lt;/span&gt;不会改变图片线之间的平型关系。是对图像进行平移，缩放倾斜和旋转。&lt;br&gt;&lt;/span&gt;" style="text;whiteSpace=wrap;html=1;" parent="1" vertex="1">
          <mxGeometry x="876" y="1860" width="750" height="92" as="geometry" />
        </mxCell>
        <mxCell id="SbSONll9U3j8K_KUv4hK-14" value="&lt;font style=&quot;font-size: 24px&quot; face=&quot;Times New Roman&quot;&gt;$$\Rightarrow \begin{bmatrix}x&#39;\\y&#39;\\1\end{bmatrix}=\begin{bmatrix}&lt;br&gt;a_1&amp;amp;a_2&amp;amp;t_x\\a_3&amp;amp;a_4&amp;amp;t_y\\0&amp;amp;0&amp;amp;1\end{bmatrix}\begin{bmatrix}x\\y\\1\end{bmatrix}$$&lt;/font&gt;" style="text;html=1;align=center;verticalAlign=middle;resizable=0;points=[];autosize=1;strokeColor=none;fillColor=none;" parent="1" vertex="1">
          <mxGeometry x="603" y="2021" width="908" height="41" as="geometry" />
        </mxCell>
        <mxCell id="SbSONll9U3j8K_KUv4hK-15" value="&lt;span style=&quot;color: rgb(0 , 0 , 0) ; font-family: &amp;#34;times new roman&amp;#34; ; font-size: 24px ; font-style: normal ; font-weight: 400 ; letter-spacing: normal ; text-align: center ; text-indent: 0px ; text-transform: none ; word-spacing: 0px ; display: inline ; float: none&quot;&gt;&lt;span style=&quot;white-space: pre&quot;&gt;t代表平移量，a代表旋转或者缩放量&lt;/span&gt;&lt;br&gt;&lt;/span&gt;" style="text;whiteSpace=wrap;html=1;" parent="1" vertex="1">
          <mxGeometry x="910" y="2142" width="394" height="39" as="geometry" />
        </mxCell>
        <mxCell id="SbSONll9U3j8K_KUv4hK-16" value="&lt;span style=&quot;color: rgb(0 , 0 , 0) ; font-family: &amp;#34;times new roman&amp;#34; ; font-size: 24px ; font-style: normal ; font-weight: 400 ; letter-spacing: normal ; text-align: center ; text-indent: 0px ; text-transform: none ; word-spacing: 0px ; display: inline ; float: none&quot;&gt;&lt;span style=&quot;white-space: pre&quot;&gt;        透视变换是把一个二维坐标系转换为三维坐标系，然后把这个三&lt;br/&gt;维坐标系重新投影到另一个二维坐标系，是一个非线性变换的过程。将&lt;br/&gt;不会保证原来的平行关系。&lt;/span&gt;&lt;br&gt;&lt;/span&gt;" style="text;whiteSpace=wrap;html=1;" parent="1" vertex="1">
          <mxGeometry x="1686" y="1259" width="750" height="89" as="geometry" />
        </mxCell>
        <mxCell id="SbSONll9U3j8K_KUv4hK-37" value="" style="group" parent="1" vertex="1" connectable="0">
          <mxGeometry x="1579" y="1420" width="955" height="318" as="geometry" />
        </mxCell>
        <mxCell id="SbSONll9U3j8K_KUv4hK-17" value="&lt;font style=&quot;font-size: 24px&quot; face=&quot;Times New Roman&quot;&gt;$$\Rightarrow \begin{bmatrix}X\\Y\\Z\end{bmatrix}=\begin{bmatrix}&lt;br&gt;a_{11}&amp;amp;a_{12}&amp;amp;a_{13}\\a_{21}&amp;amp;a_{22}&amp;amp;a_{23}&lt;br&gt;\\a_{31}&amp;amp;a_{32}&amp;amp;a_{33}\end{bmatrix}\begin{bmatrix}x\\y\\1\end{bmatrix}$$&lt;/font&gt;" style="text;html=1;align=center;verticalAlign=middle;resizable=0;points=[];autosize=1;strokeColor=none;fillColor=none;" parent="SbSONll9U3j8K_KUv4hK-37" vertex="1">
          <mxGeometry width="793" height="59" as="geometry" />
        </mxCell>
        <mxCell id="SbSONll9U3j8K_KUv4hK-27" value="" style="group" parent="SbSONll9U3j8K_KUv4hK-37" vertex="1" connectable="0">
          <mxGeometry x="191" y="125" width="213" height="193" as="geometry" />
        </mxCell>
        <mxCell id="SbSONll9U3j8K_KUv4hK-22" value="" style="shape=curlyBracket;whiteSpace=wrap;html=1;rounded=1;" parent="SbSONll9U3j8K_KUv4hK-27" vertex="1">
          <mxGeometry x="36" width="20" height="193" as="geometry" />
        </mxCell>
        <mxCell id="SbSONll9U3j8K_KUv4hK-23" value="&lt;font face=&quot;Times New Roman&quot;&gt;&lt;span style=&quot;font-size: 24px&quot;&gt;$$x&#39;=\frac{X}{Z}$$&lt;/span&gt;&lt;/font&gt;" style="text;html=1;align=center;verticalAlign=middle;resizable=0;points=[];autosize=1;strokeColor=none;fillColor=none;" parent="SbSONll9U3j8K_KUv4hK-27" vertex="1">
          <mxGeometry y="9" width="211" height="23" as="geometry" />
        </mxCell>
        <mxCell id="SbSONll9U3j8K_KUv4hK-25" value="&lt;font face=&quot;Times New Roman&quot;&gt;&lt;span style=&quot;font-size: 24px&quot;&gt;$$y&#39;=\frac{Y}{Z}$$&lt;/span&gt;&lt;/font&gt;" style="text;html=1;align=center;verticalAlign=middle;resizable=0;points=[];autosize=1;strokeColor=none;fillColor=none;" parent="SbSONll9U3j8K_KUv4hK-27" vertex="1">
          <mxGeometry x="2" y="73" width="211" height="23" as="geometry" />
        </mxCell>
        <mxCell id="SbSONll9U3j8K_KUv4hK-26" value="&lt;font face=&quot;Times New Roman&quot;&gt;&lt;span style=&quot;font-size: 24px&quot;&gt;$$z&#39;=1$$&lt;/span&gt;&lt;/font&gt;" style="text;html=1;align=center;verticalAlign=middle;resizable=0;points=[];autosize=1;strokeColor=none;fillColor=none;" parent="SbSONll9U3j8K_KUv4hK-27" vertex="1">
          <mxGeometry x="52" y="142" width="100" height="23" as="geometry" />
        </mxCell>
        <mxCell id="SbSONll9U3j8K_KUv4hK-28" value="" style="group" parent="SbSONll9U3j8K_KUv4hK-37" vertex="1" connectable="0">
          <mxGeometry x="392" y="114" width="563" height="193" as="geometry" />
        </mxCell>
        <mxCell id="SbSONll9U3j8K_KUv4hK-29" value="" style="shape=curlyBracket;whiteSpace=wrap;html=1;rounded=1;" parent="SbSONll9U3j8K_KUv4hK-28" vertex="1">
          <mxGeometry x="36" width="20" height="193" as="geometry" />
        </mxCell>
        <mxCell id="SbSONll9U3j8K_KUv4hK-30" value="&lt;font face=&quot;Times New Roman&quot;&gt;&lt;span style=&quot;font-size: 24px&quot;&gt;$$x&#39;=\frac{a_{11}x+a_{12}y+a_{13}}{a_{31}x+a_{32}y+a_{33}}$$&lt;/span&gt;&lt;/font&gt;" style="text;html=1;align=center;verticalAlign=middle;resizable=0;points=[];autosize=1;strokeColor=none;fillColor=none;" parent="SbSONll9U3j8K_KUv4hK-28" vertex="1">
          <mxGeometry x="-136" y="14" width="698" height="23" as="geometry" />
        </mxCell>
        <mxCell id="SbSONll9U3j8K_KUv4hK-33" value="&lt;font face=&quot;Times New Roman&quot;&gt;&lt;span style=&quot;font-size: 24px&quot;&gt;$$y&#39;=\frac{a_{21}x+a_{22}y+a_{23}}{a_{31}x+a_{32}y+a_{33}}$$&lt;/span&gt;&lt;/font&gt;" style="text;html=1;align=center;verticalAlign=middle;resizable=0;points=[];autosize=1;strokeColor=none;fillColor=none;" parent="SbSONll9U3j8K_KUv4hK-28" vertex="1">
          <mxGeometry x="-136" y="78" width="699" height="23" as="geometry" />
        </mxCell>
        <mxCell id="SbSONll9U3j8K_KUv4hK-35" value="&lt;font face=&quot;Times New Roman&quot;&gt;&lt;span style=&quot;font-size: 24px&quot;&gt;$$z&#39;=1$$&lt;/span&gt;&lt;/font&gt;" style="text;html=1;align=center;verticalAlign=middle;resizable=0;points=[];autosize=1;strokeColor=none;fillColor=none;" parent="SbSONll9U3j8K_KUv4hK-28" vertex="1">
          <mxGeometry x="76" y="148" width="100" height="23" as="geometry" />
        </mxCell>
        <mxCell id="SbSONll9U3j8K_KUv4hK-36" value="&lt;font style=&quot;font-size: 24px&quot; face=&quot;Times New Roman&quot;&gt;$$\Rightarrow$$&lt;/font&gt;" style="text;html=1;align=center;verticalAlign=middle;resizable=0;points=[];autosize=1;strokeColor=none;fillColor=none;" parent="SbSONll9U3j8K_KUv4hK-28" vertex="1">
          <mxGeometry x="-93" y="84" width="175" height="23" as="geometry" />
        </mxCell>
        <mxCell id="RSxf1-MkkPVmt30sIyCY-1" value="&lt;font face=&quot;Times New Roman&quot;&gt;&lt;span style=&quot;font-size: 24px&quot;&gt;张正友相机标定&lt;/span&gt;&lt;/font&gt;" style="text;html=1;align=center;verticalAlign=middle;resizable=0;points=[];autosize=1;strokeColor=none;fillColor=none;" parent="1" vertex="1">
          <mxGeometry x="1699" y="1901" width="179" height="23" as="geometry" />
        </mxCell>
        <mxCell id="RSxf1-MkkPVmt30sIyCY-2" value="&lt;font face=&quot;Times New Roman&quot;&gt;&lt;span style=&quot;font-size: 24px&quot;&gt;使用圆形靶标的精度高于棋盘靶标&lt;/span&gt;&lt;/font&gt;" style="text;html=1;align=center;verticalAlign=middle;resizable=0;points=[];autosize=1;strokeColor=none;fillColor=none;" parent="1" vertex="1">
          <mxGeometry x="1730" y="1956" width="371" height="23" as="geometry" />
        </mxCell>
        <mxCell id="RSxf1-MkkPVmt30sIyCY-3" value="" style="shape=curlyBracket;whiteSpace=wrap;html=1;rounded=1;" parent="1" vertex="1">
          <mxGeometry x="1711" y="1947" width="20" height="102" as="geometry" />
        </mxCell>
        <mxCell id="RSxf1-MkkPVmt30sIyCY-5" value="&lt;font face=&quot;Times New Roman&quot;&gt;&lt;span style=&quot;font-size: 24px&quot;&gt;圆形标靶存在偏心误差，棋盘靶标没有&lt;/span&gt;&lt;/font&gt;" style="text;html=1;align=left;verticalAlign=middle;resizable=0;points=[];autosize=1;strokeColor=none;fillColor=none;" parent="1" vertex="1">
          <mxGeometry x="1736" y="2011" width="419" height="23" as="geometry" />
        </mxCell>
        <mxCell id="RSxf1-MkkPVmt30sIyCY-8" value="&lt;font face=&quot;Times New Roman&quot;&gt;&lt;span style=&quot;font-size: 24px&quot;&gt;标定结果的评判标准&lt;/span&gt;&lt;/font&gt;" style="text;html=1;align=left;verticalAlign=middle;resizable=0;points=[];autosize=1;strokeColor=none;fillColor=none;" parent="1" vertex="1">
          <mxGeometry x="2216" y="1877" width="227" height="23" as="geometry" />
        </mxCell>
        <mxCell id="RSxf1-MkkPVmt30sIyCY-9" value="" style="shape=curlyBracket;whiteSpace=wrap;html=1;rounded=1;" parent="1" vertex="1">
          <mxGeometry x="2240" y="1921" width="20" height="267" as="geometry" />
        </mxCell>
        <mxCell id="RSxf1-MkkPVmt30sIyCY-11" value="&lt;font face=&quot;Times New Roman&quot;&gt;&lt;span style=&quot;font-size: 24px&quot;&gt;检测精度&lt;/span&gt;&lt;/font&gt;" style="text;html=1;align=left;verticalAlign=middle;resizable=0;points=[];autosize=1;strokeColor=none;fillColor=none;" parent="1" vertex="1">
          <mxGeometry x="2267" y="1941" width="107" height="23" as="geometry" />
        </mxCell>
        <mxCell id="RSxf1-MkkPVmt30sIyCY-12" value="&lt;font face=&quot;Times New Roman&quot;&gt;&lt;span style=&quot;font-size: 24px&quot;&gt;噪声&lt;/span&gt;&lt;/font&gt;" style="text;html=1;align=left;verticalAlign=middle;resizable=0;points=[];autosize=1;strokeColor=none;fillColor=none;" parent="1" vertex="1">
          <mxGeometry x="2265" y="2010" width="59" height="23" as="geometry" />
        </mxCell>
        <mxCell id="RSxf1-MkkPVmt30sIyCY-13" value="&lt;span style=&quot;font-family: &amp;#34;times new roman&amp;#34; ; font-size: 24px&quot;&gt;分辨率&lt;/span&gt;" style="text;html=1;align=left;verticalAlign=middle;resizable=0;points=[];autosize=1;strokeColor=none;fillColor=none;" parent="1" vertex="1">
          <mxGeometry x="2267" y="2084" width="83" height="23" as="geometry" />
        </mxCell>
        <mxCell id="RSxf1-MkkPVmt30sIyCY-14" value="&lt;font face=&quot;times new roman&quot;&gt;&lt;span style=&quot;font-size: 24px&quot;&gt;优化方法&lt;/span&gt;&lt;/font&gt;" style="text;whiteSpace=wrap;html=1;" parent="1" vertex="1">
          <mxGeometry x="2269" y="2145" width="109" height="24" as="geometry" />
        </mxCell>
        <mxCell id="RSxf1-MkkPVmt30sIyCY-16" value="&lt;font face=&quot;Times New Roman&quot;&gt;&lt;span style=&quot;font-size: 24px&quot;&gt;可以使用OPENCV去标定&lt;/span&gt;&lt;/font&gt;" style="text;html=1;align=center;verticalAlign=middle;resizable=0;points=[];autosize=1;strokeColor=none;fillColor=none;" parent="1" vertex="1">
          <mxGeometry x="1721" y="2131" width="275" height="23" as="geometry" />
        </mxCell>
        <mxCell id="RSxf1-MkkPVmt30sIyCY-17" value="&lt;font face=&quot;Times New Roman&quot;&gt;&lt;span style=&quot;font-size: 24px&quot;&gt;使用高精度背光标靶&lt;/span&gt;&lt;/font&gt;" style="text;html=1;align=center;verticalAlign=middle;resizable=0;points=[];autosize=1;strokeColor=none;fillColor=none;" parent="1" vertex="1">
          <mxGeometry x="1720" y="2179" width="227" height="23" as="geometry" />
        </mxCell>
        <mxCell id="RSxf1-MkkPVmt30sIyCY-18" value="" style="shape=curlyBracket;whiteSpace=wrap;html=1;rounded=1;" parent="1" vertex="1">
          <mxGeometry x="1702" y="2123" width="20" height="199" as="geometry" />
        </mxCell>
        <mxCell id="RSxf1-MkkPVmt30sIyCY-20" value="&lt;font face=&quot;Times New Roman&quot;&gt;&lt;span style=&quot;font-size: 24px&quot;&gt;相机小光圈低曝光&lt;/span&gt;&lt;/font&gt;" style="text;html=1;align=left;verticalAlign=middle;resizable=0;points=[];autosize=1;strokeColor=none;fillColor=none;" parent="1" vertex="1">
          <mxGeometry x="1726" y="2229" width="203" height="23" as="geometry" />
        </mxCell>
        <mxCell id="9DohkxBUpVpnpryfQNPD-2" value="&lt;font face=&quot;Times New Roman&quot; style=&quot;font-size: 30px&quot;&gt;SGM双目匹配算法&lt;/font&gt;" style="text;html=1;align=center;verticalAlign=middle;resizable=0;points=[];autosize=1;strokeColor=none;fillColor=none;" parent="1" vertex="1">
          <mxGeometry x="51" y="2389" width="256" height="25" as="geometry" />
        </mxCell>
        <mxCell id="9DohkxBUpVpnpryfQNPD-72" value="" style="group" parent="1" vertex="1" connectable="0">
          <mxGeometry x="72" y="2509" width="611" height="779" as="geometry" />
        </mxCell>
        <mxCell id="9DohkxBUpVpnpryfQNPD-49" value="&lt;font style=&quot;font-size: 18px&quot;&gt;SGM匹配类&lt;/font&gt;" style="rounded=1;whiteSpace=wrap;html=1;" parent="9DohkxBUpVpnpryfQNPD-72" vertex="1">
          <mxGeometry y="359.30620155038764" width="166.63636363636363" height="60.38759689922481" as="geometry" />
        </mxCell>
        <mxCell id="9DohkxBUpVpnpryfQNPD-50" value="&lt;font style=&quot;font-size: 18px&quot;&gt;结构体&lt;/font&gt;" style="rounded=1;whiteSpace=wrap;html=1;" parent="9DohkxBUpVpnpryfQNPD-72" vertex="1">
          <mxGeometry x="263.84090909090907" y="23.490775193798232" width="138.86363636363637" height="36.23255813953489" as="geometry" />
        </mxCell>
        <mxCell id="9DohkxBUpVpnpryfQNPD-51" value="" style="shape=curlyBracket;whiteSpace=wrap;html=1;rounded=1;fontSize=18;" parent="9DohkxBUpVpnpryfQNPD-72" vertex="1">
          <mxGeometry x="416.5909090909091" y="2.355116279069548" width="27.772727272727273" height="78.50387596899226" as="geometry" />
        </mxCell>
        <mxCell id="9DohkxBUpVpnpryfQNPD-52" value="&lt;font style=&quot;font-size: 18px&quot;&gt;结构参数&lt;/font&gt;" style="rounded=1;whiteSpace=wrap;html=1;" parent="9DohkxBUpVpnpryfQNPD-72" vertex="1">
          <mxGeometry x="458.25000000000006" y="23.490775193798232" width="152.75" height="36.23255813953489" as="geometry" />
        </mxCell>
        <mxCell id="9DohkxBUpVpnpryfQNPD-53" value="&lt;font style=&quot;font-size: 18px&quot;&gt;成员函数&lt;span style=&quot;white-space: pre&quot;&gt; &lt;/span&gt;&lt;/font&gt;" style="rounded=1;whiteSpace=wrap;html=1;" parent="9DohkxBUpVpnpryfQNPD-72" vertex="1">
          <mxGeometry x="263.84090909090907" y="204.65356589147268" width="138.86363636363637" height="36.23255813953489" as="geometry" />
        </mxCell>
        <mxCell id="9DohkxBUpVpnpryfQNPD-54" value="&lt;span style=&quot;font-size: 18px&quot;&gt;初始化环境&lt;/span&gt;" style="rounded=1;whiteSpace=wrap;html=1;" parent="9DohkxBUpVpnpryfQNPD-72" vertex="1">
          <mxGeometry x="458.25000000000006" y="156.34348837209282" width="152.75" height="36.23255813953489" as="geometry" />
        </mxCell>
        <mxCell id="9DohkxBUpVpnpryfQNPD-55" value="&lt;span style=&quot;font-size: 18px&quot;&gt;执行匹配&lt;/span&gt;&lt;span style=&quot;color: rgba(0 , 0 , 0 , 0) ; font-family: monospace ; font-size: 0px&quot;&gt;%3CmxGraphModel%3E%3Croot%3E%3CmxCell%20id%3D%220%22%2F%3E%3CmxCell%20id%3D%221%22%20parent%3D%220%22%2F%3E%3CmxCell%20id%3D%222%22%20value%3D%22%26lt%3Bspan%20style%3D%26quot%3Bfont-size%3A%2018px%26quot%3B%26gt%3B%E5%88%9D%E5%A7%8B%E5%8C%96%E7%8E%AF%E5%A2%83%26lt%3B%2Fspan%26gt%3B%22%20style%3D%22rounded%3D1%3BwhiteSpace%3Dwrap%3Bhtml%3D1%3B%22%20vertex%3D%221%22%20parent%3D%221%22%3E%3CmxGeometry%20x%3D%22-1080%22%20y%3D%22725%22%20width%3D%22100%22%20height%3D%2230%22%20as%3D%22geometry%22%2F%3E%3C%2FmxCell%3E%3C%2Froot%3E%3C%2FmxGraphModel%3E&lt;/span&gt;" style="rounded=1;whiteSpace=wrap;html=1;" parent="9DohkxBUpVpnpryfQNPD-72" vertex="1">
          <mxGeometry x="458.25000000000006" y="204.65356589147268" width="152.75" height="36.23255813953489" as="geometry" />
        </mxCell>
        <mxCell id="9DohkxBUpVpnpryfQNPD-56" value="&lt;span style=&quot;font-size: 18px&quot;&gt;重设置&lt;/span&gt;" style="rounded=1;whiteSpace=wrap;html=1;" parent="9DohkxBUpVpnpryfQNPD-72" vertex="1">
          <mxGeometry x="458.25000000000006" y="252.9636434108525" width="152.75" height="36.23255813953489" as="geometry" />
        </mxCell>
        <mxCell id="9DohkxBUpVpnpryfQNPD-57" value="&lt;font style=&quot;font-size: 18px&quot;&gt;成员函数&lt;span style=&quot;white-space: pre&quot;&gt; &lt;/span&gt;&lt;/font&gt;" style="rounded=1;whiteSpace=wrap;html=1;" parent="9DohkxBUpVpnpryfQNPD-72" vertex="1">
          <mxGeometry x="263.84090909090907" y="422.048914728682" width="138.86363636363637" height="36.23255813953489" as="geometry" />
        </mxCell>
        <mxCell id="9DohkxBUpVpnpryfQNPD-58" value="&lt;span style=&quot;font-size: 18px&quot;&gt;图像输入&lt;/span&gt;" style="rounded=1;whiteSpace=wrap;html=1;" parent="9DohkxBUpVpnpryfQNPD-72" vertex="1">
          <mxGeometry x="458.25000000000006" y="325.4287596899223" width="152.75" height="36.23255813953489" as="geometry" />
        </mxCell>
        <mxCell id="9DohkxBUpVpnpryfQNPD-59" value="&lt;span style=&quot;font-size: 18px&quot;&gt;代价计算 census&lt;/span&gt;" style="rounded=1;whiteSpace=wrap;html=1;" parent="9DohkxBUpVpnpryfQNPD-72" vertex="1">
          <mxGeometry x="458.25000000000006" y="373.7388372093022" width="152.75" height="36.23255813953489" as="geometry" />
        </mxCell>
        <mxCell id="9DohkxBUpVpnpryfQNPD-60" value="&lt;span style=&quot;font-size: 18px&quot;&gt;代价聚合&lt;/span&gt;" style="rounded=1;whiteSpace=wrap;html=1;" parent="9DohkxBUpVpnpryfQNPD-72" vertex="1">
          <mxGeometry x="458.25000000000006" y="422.048914728682" width="152.75" height="36.23255813953489" as="geometry" />
        </mxCell>
        <mxCell id="9DohkxBUpVpnpryfQNPD-61" value="&lt;span style=&quot;font-size: 18px&quot;&gt;视差计算&lt;/span&gt;" style="rounded=1;whiteSpace=wrap;html=1;" parent="9DohkxBUpVpnpryfQNPD-72" vertex="1">
          <mxGeometry x="458.25000000000006" y="470.35899224806184" width="152.75" height="36.23255813953489" as="geometry" />
        </mxCell>
        <mxCell id="9DohkxBUpVpnpryfQNPD-62" value="&lt;span style=&quot;font-size: 18px&quot;&gt;一致性检查&lt;/span&gt;" style="rounded=1;whiteSpace=wrap;html=1;" parent="9DohkxBUpVpnpryfQNPD-72" vertex="1">
          <mxGeometry x="458.25000000000006" y="518.6690697674417" width="152.75" height="36.23255813953489" as="geometry" />
        </mxCell>
        <mxCell id="9DohkxBUpVpnpryfQNPD-63" value="&lt;font style=&quot;font-size: 18px&quot;&gt;成员变量&lt;span style=&quot;white-space: pre&quot;&gt; &lt;/span&gt;&lt;/font&gt;" style="rounded=1;whiteSpace=wrap;html=1;" parent="9DohkxBUpVpnpryfQNPD-72" vertex="1">
          <mxGeometry x="263.84090909090907" y="663.5993023255812" width="138.86363636363637" height="36.23255813953489" as="geometry" />
        </mxCell>
        <mxCell id="9DohkxBUpVpnpryfQNPD-64" value="&lt;span style=&quot;font-size: 18px&quot;&gt;匹配参数&lt;/span&gt;" style="rounded=1;whiteSpace=wrap;html=1;" parent="9DohkxBUpVpnpryfQNPD-72" vertex="1">
          <mxGeometry x="458.25000000000006" y="591.1341860465114" width="152.75" height="36.23255813953489" as="geometry" />
        </mxCell>
        <mxCell id="9DohkxBUpVpnpryfQNPD-65" value="&lt;span style=&quot;font-size: 18px&quot;&gt;核线像对数据&lt;/span&gt;" style="rounded=1;whiteSpace=wrap;html=1;" parent="9DohkxBUpVpnpryfQNPD-72" vertex="1">
          <mxGeometry x="458.25000000000006" y="639.4442635658913" width="152.75" height="36.23255813953489" as="geometry" />
        </mxCell>
        <mxCell id="9DohkxBUpVpnpryfQNPD-66" value="&lt;span style=&quot;font-size: 18px&quot;&gt;核线像对尺寸&lt;/span&gt;" style="rounded=1;whiteSpace=wrap;html=1;" parent="9DohkxBUpVpnpryfQNPD-72" vertex="1">
          <mxGeometry x="458.25000000000006" y="687.7543410852712" width="152.75" height="36.23255813953489" as="geometry" />
        </mxCell>
        <mxCell id="9DohkxBUpVpnpryfQNPD-67" value="&lt;span style=&quot;font-size: 18px&quot;&gt;中间结果数据&lt;/span&gt;" style="rounded=1;whiteSpace=wrap;html=1;" parent="9DohkxBUpVpnpryfQNPD-72" vertex="1">
          <mxGeometry x="458.25000000000006" y="736.064418604651" width="152.75" height="36.23255813953489" as="geometry" />
        </mxCell>
        <mxCell id="9DohkxBUpVpnpryfQNPD-68" value="" style="shape=curlyBracket;whiteSpace=wrap;html=1;rounded=1;fontSize=18;" parent="9DohkxBUpVpnpryfQNPD-72" vertex="1">
          <mxGeometry x="416.5909090909091" y="157.85317829457344" width="27.772727272727273" height="131.34302325581396" as="geometry" />
        </mxCell>
        <mxCell id="9DohkxBUpVpnpryfQNPD-69" value="" style="shape=curlyBracket;whiteSpace=wrap;html=1;rounded=1;fontSize=18;" parent="9DohkxBUpVpnpryfQNPD-72" vertex="1">
          <mxGeometry x="416.5909090909091" y="328.8225426356592" width="27.772727272727273" height="222.67322480620157" as="geometry" />
        </mxCell>
        <mxCell id="9DohkxBUpVpnpryfQNPD-70" value="" style="shape=curlyBracket;whiteSpace=wrap;html=1;rounded=1;fontSize=18;" parent="9DohkxBUpVpnpryfQNPD-72" vertex="1">
          <mxGeometry x="416.5909090909091" y="586.7983565891475" width="27.772727272727273" height="189.83444961240312" as="geometry" />
        </mxCell>
        <mxCell id="9DohkxBUpVpnpryfQNPD-71" value="" style="shape=curlyBracket;whiteSpace=wrap;html=1;rounded=1;fontSize=18;" parent="9DohkxBUpVpnpryfQNPD-72" vertex="1">
          <mxGeometry x="208.29545454545456" width="27.772727272727273" height="779.0000000000001" as="geometry" />
        </mxCell>
        <mxCell id="9DohkxBUpVpnpryfQNPD-74" value="&lt;font face=&quot;Times New Roman&quot;&gt;&lt;span style=&quot;font-size: 30px&quot;&gt;census变换&lt;/span&gt;&lt;/font&gt;" style="text;html=1;align=center;verticalAlign=middle;resizable=0;points=[];autosize=1;strokeColor=none;fillColor=none;" parent="1" vertex="1">
          <mxGeometry x="900" y="2389" width="151" height="25" as="geometry" />
        </mxCell>
      </root>
    </mxGraphModel>
  </diagram>
</mxfile>
